<svg id="Layer_1" data-name="Layer 1" xmlns="http://www.w3.org/2000/svg" viewBox="0 0 1033.79 132.66"><defs><style>.cls-1{fill:#1ff0fe}.cls-2{fill:#15f0fe}.cls-3{fill:#4a66a0}.cls-4{fill:#516ba3}.cls-5{fill:#44609c}.cls-6{fill:#45619d}.cls-7{fill:#5770a6}.cls-9{fill:#28f1fe}</style></defs><path class="cls-1" d="M416.1 394.86c-3.16-1.73-2.64-5.74-5-8v-10c3-7 4.77-14 0-20.94V344c2.8-5.2 5.45-10.52 11.44-12.94.54-.22.87-.95 1.32-1.42 7.75-8.11 14.14-17.95 26.24-20.55h5c9 3.15 18 4.74 27 0h6c4.52 1.76 10.37 1.72 13.07 6.13 3.72 6.07 11.34 8.23 14.06 15 .16.41.69.68 1.08 1 11.1 8.46 13.52 15.42 9.36 28.8a18.31 18.31 0 0 0 0 11c2.55 9.39 3.51 19-5.11 26.16-2.92 2.43-5.46 5.06-8.12 7.7-4.16 4.13-8.28 8.41-12.68 12.23-6.89 6-15.56 5.32-23.75 3a23.17 23.17 0 0 0-13.55.07 30.87 30.87 0 0 1-15.31.79c-2.81-.59-5.92-1.27-7.64-3.37-4.69-5.74-11.5-9.41-15.4-15.75-1.77-2.89-5.74-2.76-7-6l4.79.63c.12-4.93.69-9.76.74-14.45 0-4.52-4.07-8.19-6.76-13-2.68 7.61-3.65 14.28-.76 21.06.66 1.57 1.43 3.03.98 4.77zm11.23 6.76c-.24-.42-.53-.66-.9-.14 0 0 .33.35.51.53a6.68 6.68 0 0 0 4.92 4.61c1.22-4.42-.86-5.47-4.53-5zM507.06 341c-2.08.94-7.21 10.72-6.6 12.61a1.54 1.54 0 0 0 .26.42c2.22 2.95 4.45 5.9 6.91 9.15.84-1.6 1.32-2.66 1.93-3.64 3.49-5.59 4.51-10.89-1.4-15.69-.69-.55-2.1-1.37-1.07-2.82 3.45.43 3.69 4.73 6.8 5.72a21.49 21.49 0 0 0 .59-11.83c-.65-3.28-3.11-3-5.34-3.14-3-.2-2.53 2.29-3.09 4.11-.61 2 1.42 3.29 1.01 5.11zm-70 70.87l-.05-.65-.41.06.54.53c5.14 8 17.32 10.23 28.18 4.79-4.78-1.83-8.27-5.79-13.11-6-5.04-.21-10.12.8-15.21 1.28zm51.64-46.24a19.6 19.6 0 0 0-1.09-1.71A108.53 108.53 0 0 0 471.25 348c-1.78-1.46-2.94-.64-4.32.45a113.36 113.36 0 0 0-15.38 14.81c-1.09 1.26-2.14 2.46-.46 4.25 5.1 5.45 10.17 10.9 16.15 15.44 1.6 1.22 2.74 1.33 4.32 0 5.47-4.58 10.82-9.28 15.32-14.86.62-.78 1.17-1.59 1.8-2.45zm4.55-17.32c2.93-1.05 3.41 2.21 5.91 2.28.27-5 7.62-9.18 1.25-15-3.91-3.56-7.75-3-15.61 2.16 1.28 2.24 4.64 2.9 5.17 6.14-4.18-.17-5.23-6.29-9.57-4.38a30.19 30.19 0 0 0-9 5.91c6.05 4.94 11.74 9.76 16.55 15.54.74.9 1.34 2.95 3.4 1.46 4.83-3.42 5.72-9.35 1.88-14.1zM449 367.51c-1 .73-1.45 1-1.82 1.29q-8.49 6.84-.87 14.64c1.28 1.3 2.62 2.53 4 3.73 7 6.1 7.49 6 14.86.42 1.84-1.41 2-2.18.12-3.6a95.12 95.12 0 0 1-15-14.4 15 15 0 0 1-1.29-2.08zm32 24.66a5.47 5.47 0 0 0 3.92-1.91q5-4.77 9.93-9.68c1.07-1.09 2.94-2.06 1.7-4.09-1.81-2.94-3.39-6.06-6-8.38-.15-.14-1.17.44-1.55.89a119.54 119.54 0 0 1-16 15.47c-.84.68-1.5 1.58-.32 2.38 2.84 1.93 5.8 3.71 8.32 5.32zm-13.85-46.71c-2.55-2.58-5.55-4-8.34-5.72a3.16 3.16 0 0 0-4.4.55c-3.77 3.71-7.59 7.37-11.4 11-1.43 1.38-1.45 2.77-.32 4.38 1.78 2.52 2.86 5.58 5.68 7.26.22.13 1.11-.58 1.51-1.06a133.34 133.34 0 0 1 17.3-16.41zm-13.84-8.34c-2.49-1.83-6-2.72-9.46-3.77-3.26-1-8.9 3.9-8.08 7a31.29 31.29 0 0 0 4.38 10.41zm45.79 42.15c-5.37 5.67-9.65 10.19-14.18 15 5.05.39 9.35 7.17 15.51 1.27s-1.24-10.04-1.3-16.27zM453 394l-12.52-13.76c-5.12 7.62-5.87 11.65-2.87 14.65 4.3 4.3 7.88 3.99 15.39-.89zm-37.25-33c9-7.37 6.24-17.12 6-26.41-8.36 4.05-10.75 14.94-5.97 26.41zm48.78-46.87c-10.79-5-24.36-2.24-27 5.65 9.47.08 19.55 2.97 27.03-5.68zm9.42 0c7.79 8.45 17.9 5.81 27.78 5.62-4.93-8.31-17.09-10.57-27.73-5.65zm40.64 63.77c8.31-10.84 8.19-16.05-.1-24.25-1.79 3.88-5 7.79-5 11.69.04 4.05 3.19 8.12 5.13 12.53zM474 417.39c13.11 4.33 23.08 2.18 27.69-5.87-9.48.24-19.75-3.4-27.69 5.87zm-50.37-63.71c-8.21 12.64-8.28 11.48.07 23.52 6.9-7.76 6.3-15.72-.06-23.52zm57.88-32.12c-9.58-7.44-14.07-7.44-24.54 0 8.14 6.2 16.43 6.44 24.55 0zm.15 87.81c-13-6.12-13-6.12-24.75.17 10.39 7.57 15.34 7.54 24.76-.17zm35.6-12.8c8.91-3.38 9.94-19.7 5.45-26.53-8.52 7.18-6.22 16.9-5.44 26.53zm5.47-34.93c5-11.54 2.66-23-5.3-26.47-2.09 15.04-1.73 16.83 5.31 26.47zm-50.1 40.88c9.49 6.59 13.88 6.17 21.89-2.22-7.83-4.66-15.52-6.39-21.88 2.22zm-28.5-2.3c8.7 8.87 13.05 9.2 22.16 1.89-10-7.19-10-7.19-22.15-1.89zm62-34.66a46.1 46.1 0 0 0-6.27-9.11c-.66-.76-1.41-.62-2 .26-1.75 2.62-3.58 5.18-5.24 7.85-.66 1.05 4.91 10.45 6.15 10.56a1.23 1.23 0 0 0 .9-.31 41.23 41.23 0 0 0 6.44-9.25zm-66.48 10.11c8.15-10.13 8.15-10.17.05-20.09-9.24 11.64-8.7 8.74-.07 20.09zm26.69-47.07c-13.15-6.57-12.4-6.8-21.9 2.2 11.22 6.01 12.86 5.86 21.88-2.2zm41.23 39.5c-8.48 11-8.48 11-2.08 21.55 8.41-10.77 8.41-10.77 2.06-21.55zm-27.41 26.12c-3.26-2.1-6.15-4-9-5.83-.87-.57-1.76-1-2.74-.4-3 2-7.54 3.47-8.5 6.19-.74 2.07 4.6 3.73 7.14 5.69 2 1.53 3.63.82 5.38-.42 2.35-1.71 4.84-3.31 7.7-5.23zm-46.83-52.87c-9.09 8.49-9.45 13.07-2.22 20.71 9.44-5.7 6.83-13.06 2.2-20.71zm0 49.14c1.53-3.67 2.65-6.42 3.83-9.14 1.09-2.51-2.9-11.62-5.48-12.4a1.7 1.7 0 0 0-.92 0c-2.07.73-5.32 11.43-3.91 13.43 1.87 2.62 4.02 5.07 6.47 8.11zm36.1-60.38a46.81 46.81 0 0 0-9.66 6.14c-.88.69-.37 1.36.48 1.88 2.69 1.65 5.31 3.41 8 5 1 .57 10.73-4.71 10.91-5.8a1.15 1.15 0 0 0-.21-.9 48.13 48.13 0 0 0-9.53-6.32zm24.63.64c-7.3-8.43-12.85-8.87-21.49-1.7 9.62 7.62 11.04 7.73 21.48 1.7zm19.64 53.12c-2.41 2.8-4.39 5.19-6.47 7.49s-1.24 5.06-.39 7.43c.62 1.71 2.57.69 4 .59 2.95-.19 3.76-2.2 4-4.65a21.48 21.48 0 0 0-1.15-10.86zm-25.5 24.51a24 24 0 0 0 11.25 1.06c2.24-.34 4.86-.5 4.79-3.81 0-1.33 1.58-3.22-.59-3.85-2.42-.71-5-1.89-7.52.3s-4.92 3.92-7.94 6.3zm-38.19.17c-2.45-3.1-5.66-5.13-8.69-7.2-2-1.38-4.68-.33-6.64.69-1.31.68-.45 2.73-.25 4.17.35 2.61 2.47 2.77 4.41 3.13a23.45 23.45 0 0 0 11.16-.79zm-24.75-23.83c-1.79 3.89-1.5 7.61-1.11 11.35.37 3.56 3.34 3.1 5.6 3.55 3.14.62 2.21-2 2.55-3.53 1.36-6.04-4.85-7.41-7.05-11.37zm62.67-62.17c3.44 2.71 6 5 8.9 6.91 2.25 1.5 5 1 7.08-.27 1.6-.94.32-3.07.12-4.63-.35-2.77-2.72-2.44-4.64-2.64a38.19 38.19 0 0 0-11.47.63zm-63.18 25c2.79-3.28 5.1-5.8 7.17-8.51 1.61-2.11.59-4.6-.26-6.54-.74-1.68-2.94-.59-4.5-.5-2.68.14-2.95 2.11-3.15 4.19a34.4 34.4 0 0 0 .73 11.39zm25.34-25.05a39.54 39.54 0 0 0-11.37-.61c-2.21.14-3.88.81-4.28 3.2-.23 1.42-1.09 3.32.21 4.16 1.76 1.15 4.42 1.59 6.1.44 3.05-2.06 6.63-3.56 9.33-7.16zm62.17 7.08a10.32 10.32 0 0 0-5.66-5.37c-.86 4.54.81 6.34 5.65 5.4zm.36 71.56c-4.14.21-7.51.41-5.77 5.65 2.55-1.05 4.2-2.91 5.76-5.62zm-86.18-71.32c5.93-.26 5.93-.26 5.15-5.33a8.65 8.65 0 0 0-5.16 5.36zm77.36 65.7l-3.94 2.86c4.79 1.62 4.79 1.62 3.93-2.83zm1.2-62.36a1.75 1.75 0 0 0-2-2.06c-.66 0-1.59.4-1.27 1a5.69 5.69 0 0 0 2.27 2.3c.57.32.92-.58 1-1.24z" transform="translate(-411.1 -309.1)"/><path class="cls-2" d="M1444.9 362a5.53 5.53 0 0 1-5.44 3c-6.65-.26-13.33.21-20 0-3.65-.14-4.09 1.29-3.66 4.39 1.6 11.42 11.26 16.7 22.73 12.39 1.2-.45 2.75-3 4-.28 1.14 2.46-1.11 3-2.77 3.76-13.17 5.77-25.74-1-28.08-15.09a27.85 27.85 0 0 1 .13-9.89c1.72-9.11 7.74-15.34 15.86-16.26 8.7-1 13.12 2.1 17.22 12.05zm-17.34-.88h7.44c5.12 0 6.36-1.64 4.68-6.55a9.27 9.27 0 0 0-7.83-6.7 12.94 12.94 0 0 0-13.73 6.77c-1.05 1.82-2.74 4-1.67 5.89.82 1.45 3.37.47 5.14.57 1.99.06 3.98-.02 5.97-.02z" transform="translate(-411.1 -309.1)"/><path class="cls-3" d="M1444.9 440.76c-5.78.67-9-2.72-12-7.27v4.67c.08 1.79-.9 2.29-2.48 2.24s-3.17.13-3.17-2.11v-22.93c0-2.44 1.69-2.37 3.41-2.53 2.36-.23 2.26 1.27 2.25 2.83v13.6c3.65-3.32 4.36-9.73 11.21-6.62-6 5.94-5.67 11.77.75 17.12z" transform="translate(-411.1 -309.1)"/><path class="cls-4" d="M1243.94 441.75c-2.74-2-5.72-3.63-6.4-7.55-.81-4.75 1.25-9.54 5.25-11.14s8.85.11 10.76 3.65a10.38 10.38 0 0 1-2.41 13c-1 .78-2.59.67-3.2 2.05zm8.08-10c-.22-3.64-1.67-6.59-5.78-6.65s-5.83 2.79-6.1 6.49c-.29 3.88 2.71 7.34 6.06 7 4.04-.29 5.64-2.94 5.8-6.81z" transform="translate(-411.1 -309.1)"/><path class="cls-5" d="M574.53 329.77c3.19.13 7.35 0 11.45.92 15.69 3.63 23.33 14.15 22.1 30.53-1.05 14-11.53 23.77-26.64 24.61-5.65.31-11.33-.05-17 .14-2.76.1-3.31-1-3.3-3.5.08-16.28.12-32.56 0-48.83 0-3.12.91-4.15 4-3.91 2.75.21 5.6.04 9.39.04zm-7.27 27.61c0 6.48.09 13 0 19.44-.05 2.51.71 3.67 3.38 3.52 4-.23 8 0 12-.41 11.67-1.19 18.86-9 19.47-20.8s-6.34-20.92-17.75-22.92c-4.4-.77-8.95-.62-13.41-1-2.91-.26-3.73 1-3.67 3.76.09 6.12-.02 12.27-.02 18.41z" transform="translate(-411.1 -309.1)"/><path class="cls-6" d="M815.15 375.93v-28.41c0-1.89.3-3.27 2.53-3.46 1.71-.15 3.69-1.25 3.77 2 .05 1.95 1.45 1.27 2.5.7 8.42-4.56 16.41-4.05 23.34 2.71 6.33 6.16 7.53 17.84 3.28 26.55-3.78 7.75-11.59 11.72-21.12 11.16-2.59-.16-5.65-2.62-7.5-.58s-.5 5.4-.61 8.18-.08 5.65 0 8.48c.06 2.16.07 3.77-3 3.73-2.85 0-3.23-1.26-3.2-3.63.07-9.16.01-18.29.01-27.43zm31.66-10.57c-.06-8.48-4.78-14.68-12.12-15.94-8-1.37-13.48 3.09-13.48 11 0 5 .17 9.95-.06 14.91-.14 2.81 1 4.15 3.47 5.15 11.51 4.66 22.27-2.61 22.19-15.12zM988 387.17c-17.46 0-28.74-11.54-28.61-29.38.13-17.58 11.88-29.26 29.12-29a39.91 39.91 0 0 1 15 3.18c2.3 1 2.33 2.13 1.61 4.23-.84 2.44-2.06 2.1-3.74 1.14a16.62 16.62 0 0 0-2.28-1c-10.8-4.25-22.53-1.91-28.32 5.63-6.41 8.36-6.56 22.59-.33 31.39 6 8.47 18.58 10.77 29.85 5.66 1.27-.58 3-3.42 4.37-.63 1.25 2.49 1 4.9-2.56 6.14a42 42 0 0 1-14.11 2.64zM637.19 387.17c-13-.1-21.55-9.27-21-22.57.54-13 9.77-21.64 22.26-20.82 10 .65 16.34 10 13.59 19.6-.64 2.26-2.11 2.17-3.8 2.19-7.32.07-14.64.34-22 .18-3.46-.07-3.82 1.34-3.29 4.19 1.83 10 11.78 14.4 23.32 9.84 3.31-1.31 4.08-.27 4.43 2.53.22 1.79-1.23 2.15-2.4 2.69a26.59 26.59 0 0 1-11.11 2.17zM634.56 361a59.37 59.37 0 0 1 7.44 0c4.87.61 4.66-2.18 3.81-5.36a8.59 8.59 0 0 0-3.28-4.82c-6.49-4.74-18.13.23-19.21 8.16-.23 1.66.43 2 1.83 2 3.13-.06 6.27-.04 9.41.02z" transform="translate(-411.1 -309.1)"/><path class="cls-5" d="M881.16 365.82c-3.66 0-7.34.19-11-.05-3.31-.22-3.48 1.4-3 3.92 1.87 10.18 11.77 14.71 23.19 10.18 3.38-1.34 4.52-.74 4.65 2.67.06 1.54-1.21 1.82-2.19 2.35-10 5.4-23.69 2-29.19-7.26-6-10.1-3.21-24.63 6.21-30.73 6.49-4.2 13.51-4.65 20.34-.83 5.17 2.9 7.29 9.4 6.24 16.18-.38 2.44-1.22 3.47-3.77 3.35-3.82-.17-7.65 0-11.48 0zM879 361c2.82 0 5.65-.09 8.47 0 2.63.1 3.55-.76 3-3.53-1-5.57-4.6-8.59-10.47-8.43s-11.59 4.86-12.27 9.83c-.3 2.19.87 2.1 2.26 2.1zM1149.49 387.13c-14.49.32-23.18-9.07-22.53-23.05.61-13.1 10.41-21.69 23.16-20.21 9.74 1.13 14.41 9.21 12.53 19.48-.41 2.24-2.07 2.21-3.8 2.22-7.31.06-14.63.27-21.94.21-3.2 0-4 .93-3.28 4.11 2.27 9.94 11.19 14.09 22.43 10.45 1.39-.46 3.35-3.35 4.84 0s-.66 4.44-3.29 5.27a30 30 0 0 1-8.12 1.52zm-4.27-26.13a63.45 63.45 0 0 1 7.43.05c4.59.54 5-1.69 3.86-5.21-1.42-4.52-4.59-6.64-9.23-6.78-5.84-.18-10.48 3-12.71 8.46-1 2.53-.83 3.66 2.22 3.51 2.8-.2 5.62-.03 8.43-.03zM720.63 365.82c-3.83 0-7.66.15-11.48 0-2.89-.15-3.35 1-2.88 3.55 2 10.6 11.48 14.91 23.44 10.63 1.12-.41 2.37-2 3.55-.54.65.79.71 2.16.83 3.29s-.87 1.72-1.8 2.09c-7.95 3.15-16 3.88-23.45-.91-7.92-5.08-9.88-13-8.77-21.82 1-8.19 5.11-14.43 13.14-17.22 6.06-2.09 12.22-2 17.52 2.25 4.74 3.83 5.66 9.13 5 14.88-.3 2.44-1.19 3.86-4.09 3.64-3.64-.26-7.32-.06-11-.06zm-2.57-4.82c2.83 0 5.67-.18 8.48 0 3.16.25 3.72-1.23 3.17-3.85-1-4.54-3.59-7.39-8.28-8.08a13 13 0 0 0-13.54 7.29c-1.53 3-1.76 5 2.68 4.64 2.48-.23 4.99 0 7.49 0zM763 365.72c0-13.25 8.35-22 21.08-22 12.57 0 20.88 8.61 20.81 21.61s-8.87 21.92-21.43 21.81c-12.27-.08-20.46-8.64-20.46-21.42zm6-.73c-.1 10 6 16.94 15 16.9 8.51 0 14.67-6.7 14.84-16.07.17-9.7-5.85-16.67-14.52-16.81-9.01-.15-15.17 6.3-15.27 15.99z" transform="translate(-411.1 -309.1)"/><path class="cls-1" d="M1323.63 355.48v26.9c0 1.24.63 2.86-1 3.56a2.44 2.44 0 0 1-3.62-1.41c-.83-1.86-1.9-.26-2.79.12-9.35 4-17.25 2.77-22.83-3.56-5.94-6.75-6.79-19.33-1.88-27.62 4.46-7.52 12.83-10.8 22-8.61 5.7 1.36 5.7 1.36 5.71-4.45v-11.45c0-2.13 0-4.39 2.67-4.44 3.06-.06 1.67 2.64 1.69 4.06.11 8.97.05 17.94.05 26.9zm-4.41 9.64c0-3.32-.22-6.65.06-9.94.3-3.46-1.2-5.12-4.35-6.12-8.69-2.77-16.37-.14-20.12 7.09-4.23 8.18-2.23 19.83 4.36 24.52 5 3.53 10.15 3 15.6.79 5.17-2.12 4.55-6.24 4.46-10.37-.04-1.99-.01-3.98-.01-5.97z" transform="translate(-411.1 -309.1)"/><path class="cls-6" d="M1184.21 387.14a33.71 33.71 0 0 1-11.17-2.05c-2.7-.92-3.1-2.21-2.21-4.79 1.19-3.43 2.76-1 4.15-.51 4.76 1.72 9.5 3.21 14.52 1 2.48-1.08 4.14-2.76 4.15-5.62a5.47 5.47 0 0 0-3.81-5.32c-3.54-1.42-7.21-2.48-10.74-3.9-6.67-2.69-9.18-6.6-8.26-12.47.84-5.29 5.44-9.13 11.75-9.68a29.71 29.71 0 0 1 12.31 1.37c2 .66 3.64 1.25 2.82 4.14-.9 3.21-2.6 2-4.42 1.35a21.89 21.89 0 0 0-9.76-1.63c-3.36.35-6.33 1.49-6.85 5.31-.5 3.67 2.08 5.37 5 6.47 2.48.93 5.07 1.55 7.58 2.39 7.52 2.53 11.08 7 10.3 12.71-.86 6.35-5.82 10.48-13.37 11.11-.95.1-1.95.12-1.99.12z" transform="translate(-411.1 -309.1)"/><path class="cls-5" d="M1065.7 365.39c-.46-16.24 14.51-26.3 31.6-19.78 2.25.86 3 1.93 2.2 4.49-1.1 3.32-2.85 1.21-4.19.73-6.83-2.42-13.57-3.07-19 2.59-5.1 5.29-5.42 11.93-3.21 18.62 2.89 8.77 11.68 11.91 22.36 7.71 3.34-1.31 4-.14 4.42 2.56.26 1.81-1.2 2.21-2.38 2.69-15.67 6.4-32.24-1.22-31.8-19.61z" transform="translate(-411.1 -309.1)"/><path class="cls-6" d="M657.06 345.22c4.89-1.58 7 .19 8.57 4.39 3.33 9.15 7.17 18.12 11.27 28.33 2.6-6.56 4.85-12.16 7.05-17.76 1.7-4.32 3.5-8.6 4.94-13 .67-2 1.78-2.41 3.64-2.5 2.82-.13 3.94.21 2.55 3.47-4.93 11.58-9.59 23.27-14.31 35-.81 2-1.79 3.23-4.32 3.16-2.34-.07-3.07-1.27-3.81-3.11-5.1-12.61-10.29-25.13-15.58-37.98z" transform="translate(-411.1 -309.1)"/><path class="cls-2" d="M1374 365.31c0 12.82-8.26 21.62-20.3 21.62s-20-8.49-20.05-21.22 8.57-22 20.65-22c11.7.05 19.7 8.79 19.7 21.6zm-36.15 0c0 10.79 6.13 17.81 15.71 17.91s16.54-7.5 16.49-18-6.54-17.62-16.13-17.6-16.08 7.14-16.12 17.7zM1251.51 349.62c2.86-1.77 5.47-3.78 8.62-4.88 9.72-3.39 17.88 1.54 18.37 11.68.42 8.94.08 17.91.11 26.87 0 1.67-.19 3-2.36 2.89s-2-1.79-2-3.25v-24.38c-.06-6.54-2.14-9.71-6.77-10.65-5-1-14.72 2.85-16.26 6.69-.47 1.16-.23 2.62-.24 3.94v24.39c0 1.34.64 3.16-1.82 3.28-2.78.13-2.21-1.85-2.22-3.4v-33.34c0-2.13-1-5.45 2.63-5.2 2.78.19.67 3.31 1.94 5.36z" transform="translate(-411.1 -309.1)"/><path class="cls-7" d="M752.74 355.52v26.85c0 2.3-.27 3.7-3.17 3.68s-3.31-1.11-3.3-3.56c.07-17.9.15-35.8-.06-53.7 0-3.79 2.26-4.17 4.66-4.22 3-.05 1.76 2.62 1.78 4.1.15 8.94.09 17.9.09 26.85zM1116.67 355.44c0 9-.05 17.95 0 26.93 0 2.31-.29 3.7-3.19 3.68s-3.29-1.17-3.28-3.59c.06-17.95.11-35.91 0-53.86 0-3.45 2-3.77 4.38-3.92 3.33-.22 2 2.41 2 3.83.15 8.97.09 17.95.09 26.93z" transform="translate(-411.1 -309.1)"/><path class="cls-5" d="M907.13 365.05c0-5.64.1-11.28 0-16.92-.06-2.4.66-3.61 3.16-4.06 2.66-.48 2.87.79 3.18 2.91.48 3.23 2.15 1.51 3.29.37 3.85-3.83 8.5-4.11 13.45-3.19 2.33.43 3.33 1.57 2.67 4.19-.71 2.8-2.16 2-4 1.54-7.73-1.87-15.26 4.15-15.5 12.45-.17 6.13.1 12.28-.11 18.41-.07 2 1.76 5.18-2.85 5.26-4.42.08-3.14-2.86-3.18-5.05-.18-5.3-.11-10.61-.11-15.91z" transform="translate(-411.1 -309.1)"/><path d="M1042.33 351.24c4.46-6.44 9.81-8.58 16.47-7.05 2 .46 3.69 1 2.91 4s-2.35 2.17-4.31 1.63c-7.25-2-15.05 4.21-15.21 12.12-.14 6.8-.09 13.6 0 20.4 0 2.25-.15 3.67-3.1 3.68s-3.17-1.26-3.15-3.59c.08-11.11.13-22.23 0-33.33-.05-3.18.56-5.29 4.17-5s1.43 3.23 2.07 4.88a15.3 15.3 0 0 1 .15 2.26z" transform="translate(-411.1 -309.1)" fill="#3f5c99"/><path class="cls-6" d="M1385.89 432.72c-.61 6.54-3.6 8.8-9.9 7.44-.48-.11-1-.55-1.39-.5-2.07.27-4.58 1.85-6.09.08s-.54-4.78-.59-7.23c-.1-5.14 0-10.3-.05-15.45 0-2.31-.08-4.17 3.19-4.26 3.46-.1 2.65 2.13 2.71 4s0 3.63 0 6c3.21-.72 6.3-1.83 9 .25a6.71 6.71 0 0 1 3 5.95zm-5.43-1.33c-.23-2.15-.16-4.63-3.11-4.84s-3.61 1.82-3.56 4.26-.21 4.95 3.23 5.05c3.09.14 3.17-2.3 3.44-4.47z" transform="translate(-411.1 -309.1)"/><path class="cls-9" d="M1389.16 351.12c4.21-5.89 9.07-8.79 15.75-6.8 1.27.37 3.2.54 2.54 2.84s-2 1.29-3.5 1c-7.78-1.54-15 4.73-15.25 13.53-.22 6.62 0 13.26-.1 19.89 0 1.69 1.22 4.52-2.06 4.59-3.71.08-2.29-3-2.31-4.82-.12-10.61-.09-21.21 0-31.82 0-2.18-.8-5.42 2.66-5.31s1.1 3.42 1.83 5.15c.09.31.14.63.44 1.75z" transform="translate(-411.1 -309.1)"/><path class="cls-6" d="M1313.9 426.44c2.81-3.73 6.31-3.79 10.91-4.29 7.82-.86 7.31 2.42 7.2 7.64-.22 10.89-.07 10.93-10.85 10.82-4.43-.05-6.63-2.76-7.15-6.83a59.84 59.84 0 0 1-.06-7.46zm5.89 4.74c0 2.14-.2 4.54 2.93 4.65s3.33-2.05 3.32-4.34.08-5-3.23-4.95c-2.97.03-3.06 2.4-3.02 4.64z" transform="translate(-411.1 -309.1)"/><path class="cls-3" d="M1385.89 432.72v-3.79c1.73 1.18 1.7-.29 2.18-1.33 2.45-5.31 7.5-7.33 12.74-5.18 4.49 1.84 6.46 7.36 4.58 12.75-1.53 4.36-6.37 6.57-11.52 5.25a8 8 0 0 1-5.86-5.59c-.36-.96.35-3.17-2.12-2.11zm7.65-1.31c.15 2.12.15 4.46 3.25 4.42s3.17-2.28 3.22-4.5c.06-2.47-.25-4.9-3.48-4.73-2.94.15-2.89 2.61-2.99 4.81z" transform="translate(-411.1 -309.1)"/><path class="cls-5" d="M1022.85 364.79c0 6-.07 12 0 17.95 0 2.28-.57 3.25-3.06 3.25s-3.1-.88-3.08-3.19c.09-11.64.13-23.27 0-34.91 0-2.94 1.32-3.78 3.84-3.9 3.21-.15 2.22 2.27 2.25 3.84.11 5.65.05 11.3.05 16.96z" transform="translate(-411.1 -309.1)"/><path class="cls-6" d="M1354.61 433.39c2.08 4.06 4.84 3 7.33 2.57 1.63-.26 2.87-.41 3.23 1.76s-1.05 2.08-2.29 2.47c-9 2.84-14.87-1.86-14-11.18.5-5.15 4.56-7.94 10.45-7.18 4.59.6 7.25 4.6 6.63 9.41-.28 2.23-1.57 2.15-3.09 2.15zm3.3-3.76c1-.27 2.69.57 2.72-1.16a2.52 2.52 0 0 0-2.91-2.61c-1.44.05-2.69.7-2.72 2.24 0 2.16 1.81 1.24 2.91 1.53zM1416.56 440.63c-5.85 0-9.2-3.33-9.27-9.22-.07-6.19 3.35-9.7 9.37-9.62 5.72.07 9.14 3.64 9.1 9.48s-3.51 9.37-9.2 9.36zm3.35-9.57c-.13-2.37-.58-4.73-3.75-4.53-2.89.18-3 2.53-3.06 4.73s.27 4.46 3.19 4.57c3.24.17 3.55-2.23 3.62-4.77z" transform="translate(-411.1 -309.1)"/><path class="cls-3" d="M1313.9 426.44v-.12c-4 0-5.42 2.08-4.76 5.94a41.53 41.53 0 0 1 .06 4.47c.13 2.26-.15 3.81-3.12 3.74-2.67-.07-3-1.45-2.86-3.51a40.08 40.08 0 0 0 0-5.48c-.18-1.86 1.09-4.19-2.44-5-1.64-.36-1.63-3.73.12-4.29 2.19-.71 2.41-1.92 2.55-3.54.42-5 3.61-6.25 8-5.9 1.13.09 2.49-.19 2.45 1.61 0 1.28.38 2.84-1.63 3-1.66.14-2.94.66-3 2.59s1.51 1.72 2.78 2c2.95.54.95 3.1 1.85 4.49z" transform="translate(-411.1 -309.1)"/><path class="cls-4" d="M1258.88 431.85a12.33 12.33 0 0 1 0-1.49c.28-2.42-.46-7 .53-6.89 3.65.32 7.43-2.56 10.84.16 1.29 1 2.09.71 3.45.11 6.29-2.8 9.45-.67 9.55 6.22 0 2.32.13 4.65 0 7-.1 1.3 1 3.55-1.18 3.68-2.43.14-1.28-2.21-1.39-3.45-.2-2.47 0-5-.09-7.45-.09-2.33-.84-4.51-3.62-4.39s-4.67 1.33-4.39 4.7c.24 3 0 6 0 8.95 0 .88-.27 1.66-1.31 1.76-1.38.14-1.63-.78-1.63-1.88v-7.95c0-2.77-.08-5.72-3.88-5.6-3.3.11-4.41 2.28-4.15 5.47.2 2.47.06 5 0 7.45 0 1.12.14 2.57-1.61 2.44-1.44-.12-1-1.44-1.07-2.33-.08-2.2-.04-4.36-.05-6.51z" transform="translate(-411.1 -309.1)"/><path d="M1228.94 358v-24.42c0-1.41-.9-3.61 2-3.62s2 2.19 2 3.61q.09 24.42 0 48.83c0 1.41.9 3.61-2 3.62s-2-2.19-2-3.61c-.04-8.15 0-16.29 0-24.41z" transform="translate(-411.1 -309.1)" fill="#00effe"/><path class="cls-3" d="M1342.74 421.85a12.82 12.82 0 0 1 2.48 0c1.44.28 3 .46 2.78 2.66-.24 2-1.27 2.37-3.09 2.08-2.75-.44-5.05.05-5.29 3.5-.27 3.62.39 6.46 5 5.73 2-.3 3.3.12 3.35 2.38s-1.74 2.13-3.13 2.35c-6.39 1-10.81-2.16-11.23-8.05-.46-7.02 2.59-10.64 9.13-10.65z" transform="translate(-411.1 -309.1)"/><path class="cls-7" d="M1215.6 440.74c-1.64-.34-1.32-1.68-1.34-2.77 0-3.3 1.14-7.28-.29-9.76-2.29-3.93.46-6.6.73-9.8a4.64 4.64 0 0 1 4.56-4.44c1.44-.13 3.42-.3 3.62 1.59.25 2.27-1.75 1.24-2.88 1.27-2.33.08-2.46 1.78-2.66 3.44-.23 2 .74 2.63 2.61 2.63 1 0 2.64-.51 2.55 1.34-.07 1.57-1.49 1.54-2.65 1.49-2.41-.1-2.58 1.41-2.55 3.24v9.42c-.02 1.14.09 2.44-1.7 2.35zM1225.24 431.61v-1c0-7.71.73-8.47 8-8.07 1 .06 2.53-.09 2.63 1.59.11 1.84-1.12 1.54-2.35 1.43-4-.37-5.18 2.31-5.5 5.48-.26 2.63 0 5.3-.09 7.95 0 .82-.1 1.71-1.24 1.7s-1.43-.73-1.44-1.64v-7.45z" transform="translate(-411.1 -309.1)"/><path class="cls-3" d="M1019.6 335.84c-2.41-.5-3.86-1.79-3.9-4.38s1.53-4.12 3.92-4.16c2.72 0 4.29 1.72 4.18 4.48-.1 2.56-1.8 3.7-4.2 4.06z" transform="translate(-411.1 -309.1)"/><path class="cls-9" d="M505 333.16c-.09.66-.44 1.56-1.05 1.24a5.69 5.69 0 0 1-2.27-2.29c-.32-.61.61-1 1.27-1a1.75 1.75 0 0 1 2.05 2.05z" transform="translate(-411.1 -309.1)"/></svg>