<svg xmlns="http://www.w3.org/2000/svg" viewBox="0 0 676.16 355.78"><defs><style>.cls-1{fill:#f9dea6}.cls-2{fill:#e2b17f}.cls-3{fill:#fff}.cls-4{fill:#fff7e0}.cls-5{fill:#40405a}.cls-6{fill:#e8575d}.cls-7{fill:#8bc540}.cls-8{fill:#8683be}.cls-9{fill:#171826}.cls-10{fill:#37b34a}.cls-11{fill:#2f2d44}.cls-12{fill:#f09087}.cls-13{fill:#d3333b}.cls-14{fill:#f7ab9d}.cls-15{fill:#4c5d46}.cls-16{fill:#384936}.cls-17{fill:#ef515f}.cls-18{fill:#9f4835}.cls-19{fill:#843528}.cls-20{fill:#af5647}.cls-21{fill:#cbebfb}.cls-22{fill:#1967a5}.cls-23{fill:#3985c3}.cls-24{fill:#b6e4f9}.cls-26{fill:#f68e1e}.cls-29{fill:#1a68a4}.cls-32{fill:#008ea6}.cls-33{fill:#00818d}</style></defs><g id="BACKGROUND"><path class="cls-1" d="M678.16 420.7a35.05 35.05 0 0 0-6-.78H54.57c-5.56 0-5.89-18.17-6.67-21.75-2.27-10.32-.23-20.77 3.44-30.54 4.63-12.35 11.34-24.17 12.91-37.26 1.46-12.07-1.58-24.16-3.74-36.12S57.15 269.5 62 258.36c5.62-12.93 18.66-21.93 22.62-35.46 2.29-7.85 1.2-16.22 1.72-24.38.56-9 5.28-21.32 13.68-25.91 11.62-6.33 26-.5 38.32-4.35 9.76-3 16.85-11.47 22.35-20.1s10.12-18 17.53-25.09c15.71-15 45.34-8.55 58.84 6.81 12.91 14.68 40.63 19.88 55.85 7.72 11-8.75 16.12-23 25.11-33.85 18.92-22.84 60.77-31.2 79.05-3.4 7.68 11.69 10.83 25.79 16.2 38.76s14.3 25.85 27.64 29.37 27.2-3.32 41-4.47a51.27 51.27 0 0 1 41 15.89 53.78 53.78 0 0 1 13.86 42.53c-1.32 11 2 22.37 12.43 25.35s21.4-.28 31.92-2.81 22.29-4.15 31.55 1.54c13.8 8.49 15 28.2 13.76 44.61-.88 11.35-2 23.45 1.64 34.45 1.57 4.74 4.48 10.53 8.51 13.68 5.14 4 14.39 5.47 20.57 7.62 15.45 5.39 31.76 11.38 41.89 24.23 7.26 9.22 10.49 22.06 6.44 33.08-3.37 9.16-12.46 16.49-22.34 17a22 22 0 0 1-4.98-.48z" transform="translate(-36.92 -65.91)"/><path class="cls-2" d="M638.66 419.92H98.89a36.13 36.13 0 0 1 5.93-16.76c8.11-12 21.53-19.11 34.57-25.37s26.71-12.44 36.19-23.37c9.81-11.32 13.93-26.31 19.3-40.3s13.19-28.38 26.8-34.64c18.47-8.5 39.85.92 57.73 10.59s38.46 20 57.6 13.19c18.17-6.5 27.6-25.83 37.52-42.38s26.14-33.55 45.13-30.18c17.71 3.13 27.36 22.17 32.92 39.27s11.25 36.54 27.15 44.95c26.31 13.92 63.38-11.67 86.71 6.82 17.32 13.72 13.78 42.45 28.83 58.63 8.35 9 21 12.51 30.49 20.29a41.59 41.59 0 0 1 12.9 19.26z" transform="translate(-36.92 -65.91)"/></g><g id="OBJECTS"><path class="cls-2" d="M378.39 114.84v19.4l-5.81 5.81h-19.4v-25.21h25.21z"/><path class="cls-3" d="M375.81 112.68v19.4l-5.81 5.81h-19.4v-25.21h25.21z"/><path class="cls-4" d="M375.81 132.08l-5.81 5.81v-5.81h5.81zM361.05 110.07h4.26v5.32h-4.26z"/><path class="cls-2" d="M407.83 114.84v19.4l-5.81 5.81h-19.41v-25.21h25.22z"/><path class="cls-3" d="M405.24 112.68v19.4l-5.8 5.81h-19.41v-25.21h25.21z"/><path class="cls-4" d="M405.24 132.08l-5.8 5.81v-5.81h5.8zM390.48 110.07h4.26v5.32h-4.26z"/><path class="cls-2" d="M437.26 114.84v19.4l-5.81 5.81h-19.4v-25.21h25.21z"/><path class="cls-3" d="M434.68 112.68v19.4l-5.81 5.81h-19.41v-25.21h25.22z"/><path class="cls-4" d="M434.68 132.08l-5.81 5.81v-5.81h5.81zM419.91 110.07h4.26v5.32h-4.26z"/><path class="cls-2" d="M466.69 114.84v19.4l-5.81 5.81h-19.4v-25.21h25.21z"/><path class="cls-3" d="M464.11 112.68v19.4l-5.81 5.81h-19.41v-25.21h25.22z"/><path class="cls-4" d="M449.35 110.07h4.26v5.32h-4.26zM464.11 132.08l-5.81 5.81v-5.81h5.81z"/><path class="cls-5" d="M309.43 65.91h107.76a14.26 14.26 0 0 1 14.26 14.26v65.13a14.25 14.25 0 0 1-14.26 14.26H305.66l-10.49 11.53V80.17a14.27 14.27 0 0 1 14.26-14.26z" transform="translate(-36.92 -65.91)"/><path class="cls-6" d="M324.58 80.08h79.91a1.74 1.74 0 0 0 1.74-1.74 1.74 1.74 0 0 0-1.74-1.75h-79.91a1.74 1.74 0 0 0-1.74 1.75 1.74 1.74 0 0 0 1.74 1.74zM376.8 148.74h27.69a1.74 1.74 0 0 0 1.74-1.75 1.75 1.75 0 0 0-1.74-1.75H376.8a1.75 1.75 0 0 0-1.75 1.75 1.75 1.75 0 0 0 1.75 1.75zM315.5 119.34h79.9a1.75 1.75 0 0 0 1.75-1.75 1.75 1.75 0 0 0-1.75-1.75h-79.9a1.75 1.75 0 0 0-1.75 1.75 1.75 1.75 0 0 0 1.75 1.75zM372.11 127.49h23.29a1.75 1.75 0 0 0 1.75-1.75 1.74 1.74 0 0 0-1.75-1.74h-23.29a1.74 1.74 0 0 0-1.75 1.74 1.75 1.75 0 0 0 1.75 1.75z" transform="translate(-36.92 -65.91)"/><path class="cls-7" d="M334.14 87.07h50.55a1.74 1.74 0 0 0 1.74-1.74 1.74 1.74 0 0 0-1.74-1.75h-50.55a1.75 1.75 0 0 0-1.75 1.75 1.74 1.74 0 0 0 1.75 1.74zM334.14 94.06h50.55a1.74 1.74 0 0 0 1.74-1.75 1.74 1.74 0 0 0-1.74-1.74h-50.55a1.74 1.74 0 0 0-1.75 1.74 1.75 1.75 0 0 0 1.75 1.75zM334.14 101.52h50.55a1.75 1.75 0 0 0 1.74-1.75 1.74 1.74 0 0 0-1.74-1.77h-50.55a1.75 1.75 0 0 0-1.75 1.75 1.75 1.75 0 0 0 1.75 1.77zM334.14 134h50.55a1.74 1.74 0 0 0 1.74-1.74 1.74 1.74 0 0 0-1.74-1.75h-50.55a1.75 1.75 0 0 0-1.75 1.75 1.74 1.74 0 0 0 1.75 1.74zM334.14 141.49h50.55a1.74 1.74 0 0 0 1.74-1.75 1.75 1.75 0 0 0-1.74-1.75h-50.55a1.75 1.75 0 0 0-1.75 1.75 1.75 1.75 0 0 0 1.75 1.75z" transform="translate(-36.92 -65.91)"/><path class="cls-8" d="M344.62 110.14h50.55a1.76 1.76 0 0 0 1.75-1.75 1.75 1.75 0 0 0-1.75-1.75h-50.55a1.75 1.75 0 0 0-1.75 1.75 1.75 1.75 0 0 0 1.75 1.75z" transform="translate(-36.92 -65.91)"/><path class="cls-5" d="M477.27 151.18h65.8a8.7 8.7 0 0 1 8.7 8.71v39.77a8.7 8.7 0 0 1-8.7 8.7H475l-6.4 7v-55.47a8.7 8.7 0 0 1 8.67-8.71z" transform="translate(-36.92 -65.91)"/><path class="cls-6" d="M486.52 159.83h48.79a1.06 1.06 0 0 0 1.07-1.06 1.07 1.07 0 0 0-1.07-1.07h-48.79a1.06 1.06 0 0 0-1.06 1.07 1.05 1.05 0 0 0 1.06 1.06zM518.4 201.75h16.91a1.06 1.06 0 0 0 1.07-1.06 1.07 1.07 0 0 0-1.07-1.07H518.4a1.06 1.06 0 0 0-1.06 1.07 1.05 1.05 0 0 0 1.06 1.06zM481 183.8h48.78a1.07 1.07 0 0 0 1.07-1.07 1.07 1.07 0 0 0-1.07-1.06H481a1.07 1.07 0 0 0-1.07 1.06 1.07 1.07 0 0 0 1.07 1.07zM515.54 188.78h14.22a1.07 1.07 0 0 0 1.07-1.07 1.06 1.06 0 0 0-1.07-1.06h-14.22a1.06 1.06 0 0 0-1.07 1.06 1.07 1.07 0 0 0 1.07 1.07z" transform="translate(-36.92 -65.91)"/><path class="cls-7" d="M492.36 164.1h30.86a1.07 1.07 0 0 0 1.07-1.06 1.07 1.07 0 0 0-1.07-1.07h-30.86a1.07 1.07 0 0 0-1.07 1.07 1.07 1.07 0 0 0 1.07 1.06zM492.36 168.37h30.86a1.07 1.07 0 0 0 1.07-1.07 1.06 1.06 0 0 0-1.07-1.06h-30.86a1.06 1.06 0 0 0-1.07 1.06 1.07 1.07 0 0 0 1.07 1.07zM492.36 172.92h30.86a1.07 1.07 0 0 0 1.07-1.07 1.06 1.06 0 0 0-1.07-1.06h-30.86a1.06 1.06 0 0 0-1.07 1.06 1.07 1.07 0 0 0 1.07 1.07zM492.36 192.78h30.86a1.07 1.07 0 0 0 1.07-1.07 1.07 1.07 0 0 0-1.07-1.07h-30.86a1.07 1.07 0 0 0-1.07 1.07 1.07 1.07 0 0 0 1.07 1.07zM492.36 197.33h30.86a1.07 1.07 0 0 0 1.07-1.07 1.07 1.07 0 0 0-1.07-1.07h-30.86a1.07 1.07 0 0 0-1.07 1.07 1.07 1.07 0 0 0 1.07 1.07z" transform="translate(-36.92 -65.91)"/><path class="cls-8" d="M498.76 178.18h30.86a1.06 1.06 0 0 0 1.07-1.06 1.07 1.07 0 0 0-1.07-1.07h-30.86a1.07 1.07 0 0 0-1.07 1.07 1.06 1.06 0 0 0 1.07 1.06z" transform="translate(-36.92 -65.91)"/><path class="cls-5" d="M198.73 71.62h-58.54a7.75 7.75 0 0 0-7.75 7.75v35.38a7.75 7.75 0 0 0 7.75 7.75h60.59l5.69 6.26V79.37a7.74 7.74 0 0 0-7.74-7.75z" transform="translate(-36.92 -65.91)"/><path class="cls-6" d="M161.84 96.12l-7.91 2.53 6.88 2.54-.78 3.93-11.54-4.51.88-4.35 13.34-4.51zM172 86.43h5l-12.49 23h-5zM187.67 96.26l-.87 4.35-13.35 4.51.88-4.37 7.9-2.54-6.88-2.53.78-3.93z" transform="translate(-36.92 -65.91)"/><rect class="cls-5" x="494.84" y="190.07" width="103.5" height="12.47" rx="6.23"/><path class="cls-9" d="M538.72 258.78h89.77a3.44 3.44 0 0 1 3.44 3.44 3.44 3.44 0 0 1-3.44 3.44h-89.77" transform="translate(-36.92 -65.91)"/><path class="cls-7" d="M592.39 262.22a3.43 3.43 0 0 1-1 2.43 3.39 3.39 0 0 1-2.43 1h-50.24a4 4 0 0 1-.85-.1 3.44 3.44 0 0 1 .85-6.78h50.33a3.44 3.44 0 0 1 3.34 3.45z" transform="translate(-36.92 -65.91)"/><path class="cls-10" d="M543.84 258.78l-1.46 6.88h-3.66a4 4 0 0 1-.85-.1l1.45-6.78z" transform="translate(-36.92 -65.91)"/><path class="cls-10" d="M515.96 192.87l-1.46 6.88h-4.53l1.46-6.88h4.53zM525 192.87l-1.46 6.88h-4.53l1.47-6.88H525zM534.04 192.87l-1.46 6.88h-4.53l1.47-6.88h4.52zM543.09 192.87l-1.47 6.88h-4.53l1.47-6.88h4.53z"/><path class="cls-10" d="M589.05 258.78l-1.47 6.88h-4.53l1.47-6.88h4.53z" transform="translate(-36.92 -65.91)"/><path class="cls-11" d="M220 150.4s5.14-15.7-9-17.69c-10-1.86-18.83.28-22.54 7.56s-.25 29.73 10.7 40.95c11.7 12 26.83 21.69 44.38 15.84s23.26-15.84 24.83-22.54-3.43-16.27-16-16.56-19.83 2.14-26.39.29a7.63 7.63 0 0 1-5.98-7.85z" transform="translate(-36.92 -65.91)"/><path class="cls-9" d="M195.46 147s2.6-4.18 3-4.68c-2.86 1.21-6 5.13-5.85 8.91a10.24 10.24 0 0 0 2.92 6.35z" transform="translate(-36.92 -65.91)"/><path class="cls-9" d="M193.35 153.54s2.85 31 25.68 35.67c18.92 3.9 34 0 37.39-9.27 3.06-8.28-2.14-14.27-6.28-16s-15.55 3.42-27-.72-7.56-11.56-7.56-11.56z" transform="translate(-36.92 -65.91)"/><path class="cls-12" d="M136.36 193.47s19.22 6.13 22.88 10.73c2.4 3 3 7-.14 9.84s-8.83-.91-10.84-2.42l-13.68-9.79s-2.71-7.37 1.78-8.36z" transform="translate(-36.92 -65.91)"/><path class="cls-13" d="M150.22 213.76s17 13.75 27 11.13c10.49-5.47 17.86-21.54 19.25-28s-2.15-21.7-9.3-21c-2.35.22-15.52 30.29-15.52 30.29l-16.48-5.78s-5.91 6.83-4.95 13.36z" transform="translate(-36.92 -65.91)"/><path class="cls-12" d="M131.12 191.52a28.88 28.88 0 0 1-4.76 3c-1.81.81-8.35 3.37-8.47 5.11-.19 2.82 4.29-.93 7.78-1.62s4 3.13 6.38 2.43 3.72-2 3-4.29-3.93-4.63-3.93-4.63z" transform="translate(-36.92 -65.91)"/><path class="cls-14" d="M137.1 196.79s0-5.73-1-7-8.09-1.42-8.09-1.42-2-2.49-2.84-2.22-.63 2.4.8 4 4.89.53 4.89.53.35 3.91 1.33 4.89 4.91 1.22 4.91 1.22z" transform="translate(-36.92 -65.91)"/><path class="cls-14" d="M138.43 200.3c.09 1.78-4.17 3.82-5.51 3.82h-.24c-1.38 0-3.7-.26-4.11-1.77a2.32 2.32 0 0 1-2.41-2c-1-.53-1.86-1.07-1.33-2.4s2.4-1.87 3.82-1.42 1 1.51 1 1.51 1.4-.44 1.4 1.48c1-2.13 5.69-3.47 5.69-3.47a10.66 10.66 0 0 1 1.69 4.25z" transform="translate(-36.92 -65.91)"/><path class="cls-12" d="M138.43 200.3c.09 1.78-4.17 3.82-5.51 3.82h-.24a3.1 3.1 0 0 1-1.54-2.17 3.49 3.49 0 0 0 1.16.35c.8.14 1.91-.75 1.38-1.69s-2.63-1-2.63-1c1-2.13 5.69-3.47 5.69-3.47a10.66 10.66 0 0 1 1.69 4.16z" transform="translate(-36.92 -65.91)"/><path class="cls-15" d="M255.53 262.37c-.55 5-3.87 16.09-8 28.51-4.36 13-9.62 27.52-13.54 38.11-3.1 8.39-4.43 19.41-6.68 31.61s-19.91 59.71-19.91 59.71l-8.59-6.31-2.56-1.89-10.07-7.48L205.13 342 221 257.21l2.41-12.82 26.32-11.88s7.41 15.09 5.8 29.86z" transform="translate(-36.92 -65.91)"/><path class="cls-16" d="M246 265.55s-16.55 48.09-20.83 62.22-7.14 27.11-10.56 40.81c-2.63 10.5-11.71 34.67-15.8 45.38l-2.56-1.89c8.94-16.39 21.2-61.16 22.78-69.89 1.72-9.42 25.4-78.48 25.4-78.48z" transform="translate(-36.92 -65.91)"/><path class="cls-16" d="M255.53 262.37c-.55 5-3.87 16.09-8 28.51-1.7-6.76-3-18.39-9-32.67-4.59.29-11.81-.35-17.51-1l2.41-12.82 26.32-11.88s7.39 15.09 5.78 29.86z" transform="translate(-36.92 -65.91)"/><path class="cls-13" d="M207.37 419.88l-43.77-1.16A12.21 12.21 0 0 1 165 414a7 7 0 0 1 3.09-3c4.17-1.92 18.08-6.42 18.08-6.42s5.11-1.72 16.1 9.4a62.21 62.21 0 0 1 5.1 5.9z" transform="translate(-36.92 -65.91)"/><path class="cls-3" d="M207.37 419.88l-43.77-1.16A12.21 12.21 0 0 1 165 414h37.27a62.21 62.21 0 0 1 5.1 5.88z" transform="translate(-36.92 -65.91)"/><path class="cls-15" d="M285.82 344.75c-.43 7.06-7.71 75.13-7.71 75.13l-6.43-4.1-2.48-1.58-15.59-9.93s5.88-47.1 5.67-71.08c-1.72-30.66-9.7-60.09-14.84-76.32-2.57-8.12-4.43-12.93-4.43-12.93l13.45-6.13 11-5 2-.91s2.32 1.83 5.29 4.62c4.73 4.45 11.1 11.35 12.42 17.26 2.14 9.63-1.93 68.5-1.93 68.5s4.01 15.41 3.58 22.47z" transform="translate(-36.92 -65.91)"/><path class="cls-16" d="M271.69 236.52c-3.15 4-7.42 8.78-11.35 11.7-4.29 3.19-11 6.45-15.9 8.65-2.57-8.12-4.43-12.93-4.43-12.93l26.39-12s2.32 1.79 5.29 4.58z" transform="translate(-36.92 -65.91)"/><path class="cls-16" d="M278.33 363.8c-.58 11.65-5.58 44.95-6.65 52l-2.48-1.58c1.26-7.05 6.21-35.35 6.77-46.55.62-12.3 1.43-28.15-.76-40.56a19.17 19.17 0 0 1-.3-3.29c-.11-11.48-2.75-56.28-5.57-70-11.24-.92-14.8-9.53-15.88-16l11-5c2.43 5.2 6.71 14.62 7.91 18.83 1.55 5.41 3.79 51.29 4.06 69.45a56.68 56.68 0 0 0 .75 8.33c1.3 8.29 1.7 23.15 1.15 34.37z" transform="translate(-36.92 -65.91)"/><path class="cls-16" d="M262.48 330c.29-.61 9.64-.85 10.49.64s-2.78 16.27-5.35 14.56-6.62-12.01-5.14-15.2z" transform="translate(-36.92 -65.91)"/><path class="cls-17" d="M278.11 419.88l-43.77-1.16a12.3 12.3 0 0 1 1.4-4.73 7 7 0 0 1 3.1-3c4.17-1.92 14.76-6.74 14.76-6.74s8.4-1.38 19.4 9.75a63.69 63.69 0 0 1 5.11 5.88z" transform="translate(-36.92 -65.91)"/><path class="cls-3" d="M278.11 419.88l-43.77-1.16a12.3 12.3 0 0 1 1.4-4.73H273a63.69 63.69 0 0 1 5.11 5.89z" transform="translate(-36.92 -65.91)"/><path class="cls-17" d="M266.4 231.9c-3.88 5.25-19.62 13.79-24.28 15s-13 2.1-25 .93c-.12-2.39-3.14-12-5.87-19.74a79.55 79.55 0 0 0-4-10c-1.75-2.72-11.76-5.76-13.51-9.45s-.62-15.81-.62-15.81-7.93-14.77-6-16.91 12.16-7 12.16-7 8.24-1.87 12-1.54 27.28.26 31 8.8 15.34 46 15.34 46 .82 1.95 8.78 9.72z" transform="translate(-36.92 -65.91)"/><path class="cls-13" d="M246.43 225.74c-1.31 1-23.32 3.21-35.19 2.31a79.55 79.55 0 0 0-4-10s10.92 4.28 19.48 5.13 21.42 1.28 19.71 2.56z" transform="translate(-36.92 -65.91)"/><path class="cls-14" d="M220.89 257.14c-17.4 22.68-18.34 21.47-18.34 21.47-5.21-.39-7.13-5.49-7.13-5.49l13.91-24.26a27 27 0 0 1 11.56 8.28z" transform="translate(-36.92 -65.91)"/><path class="cls-13" d="M243.29 206.48c-1.12 10.94-1.89 25.23-12.27 39.81-2.61 3.67-5.89 7.82-9.35 12-3.53-4.29-10.55-7.19-14.23-8.48l12.88-23.89s4.08-47.57 6.33-51.22 7.83-4.39 12.34-.56c4.16 3.51 5.43 21.4 4.3 32.34z" transform="translate(-36.92 -65.91)"/><path class="cls-17" d="M188.51 270.48a27.78 27.78 0 0 0-3.68.64c-.59.27-5.75 5.35-6.34 5.89s-3.29 1.28-3.58 1.82 1.12 2.19 3.68 1.39 8.99-7.98 9.92-9.74z" transform="translate(-36.92 -65.91)"/><path class="cls-14" d="M202.66 278.61c-1.58.75-8.43.75-8.43.75s-6.11 1.18-8.57 1.28c-.94.05-2.13.12-3.26.14h-1.92c-1-.06-1.7-.21-1.89-.54-.49-.86 8.18-9.74 9.92-9.74 2.75 0 11.3.85 11.3.85 5.1 1.48 4.42 6.51 2.85 7.26z" transform="translate(-36.92 -65.91)"/><path class="cls-17" d="M182.4 280.78h-1.92c2.23-2.74 7.08-7.19 7.24-6.75s-3.22 4.32-5.32 6.75z" transform="translate(-36.92 -65.91)"/><path class="cls-12" d="M211.74 166c-1.5 3.54-7.83 6.23-12.44 2.9a22.48 22.48 0 0 0-.84-4.68c-1.38-5.4-4-12.7-4-12.7 5.15-3 15.13 6.87 15.13 8.37a8.3 8.3 0 0 0 1.48 5.06q.3.49.67 1.05z" transform="translate(-36.92 -65.91)"/><path class="cls-17" d="M211.08 164.94a33.41 33.41 0 0 1-6.32.79 11.55 11.55 0 0 1-6.3-1.52c-1.38-5.4-4-12.7-4-12.7 5.15-3 15.13 6.87 15.13 8.37a8.3 8.3 0 0 0 1.49 5.06z" transform="translate(-36.92 -65.91)"/><path class="cls-13" d="M211.71 165s-3.5 2.32-5.32 3.25c-3.15-.51-7.67-1.84-7.67-1.84s-.07 1.85.05 3.75c1.1 2.76 5.93 4.93 5.93 4.93s1.42-2.27 2.22-3.85c.86 1.15 1.83 2.39 2.53 3.13 2-.95 4.37-6.29 4.34-7.07a8 8 0 0 0-2.08-2.3z" transform="translate(-36.92 -65.91)"/><path class="cls-12" d="M190 148.62c-1.53.73-1.43 2.19-1 3.7s3.34 4.51 5.6 4.78a6.78 6.78 0 0 0 3.18-.23s-4.08-10.01-7.78-8.25z" transform="translate(-36.92 -65.91)"/><path class="cls-17" d="M190.84 149.79c1.16-.31 3.16 1 4.47 3.16-1.22.06-1.76.6-1.3 1.36a4.3 4.3 0 0 0 3.17 1.19 4.62 4.62 0 0 0 .39.59c-.32 0-4.85.18-5.24-1.89-.23-1.59 1.87-1.77 1.87-1.77s-1.59-1.75-2.76-1.33-1 1.84-1 1.84-1.52-2.65.4-3.15z" transform="translate(-36.92 -65.91)"/><path class="cls-12" d="M219 148c1.66.33 1.92 1.78 1.91 3.34s-2.15 5.18-4.28 6a6.75 6.75 0 0 1-3.14.55s1.43-10.66 5.51-9.89z" transform="translate(-36.92 -65.91)"/><path class="cls-17" d="M218.4 149.38c-1.19 0-2.81 1.78-3.57 4.15 1.2-.24 1.85.16 1.59 1a4.3 4.3 0 0 1-2.78 1.92 5.33 5.33 0 0 1-.24.67c.32-.07 4.75-1 4.62-3.11-.16-1.6-2.23-1.26-2.23-1.26s1.11-2.09 2.34-2 1.44 1.55 1.44 1.55.81-2.9-1.17-2.92z" transform="translate(-36.92 -65.91)"/><path class="cls-14" d="M216.67 146s-.09.59-.25 1.57c-.66 4-2.45 14.2-3.82 15.56-1.71 1.71-11.27-1.13-13.54-2.46s-5.21-10.51-5.21-10.51 1.32-2.84 1.61-3.22a13.19 13.19 0 0 1 5.49-2.46c3.12-.76 7-3.22 8.62-5.68.75 5.2 7.1 7.2 7.1 7.2z" transform="translate(-36.92 -65.91)"/><path class="cls-12" d="M216.67 146s-.09.59-.25 1.57c-3.09-.75-6-3.31-7.55-5.15-2.09 2.57-8.83 4.38-10.81 4.87s-4.21 2.87-4.21 2.87 1.32-2.84 1.61-3.22a13.19 13.19 0 0 1 5.49-2.46c3.12-.76 7-3.22 8.62-5.68.75 5.2 7.1 7.2 7.1 7.2z" transform="translate(-36.92 -65.91)"/><path class="cls-11" d="M213.07 149.82a1.46 1.46 0 0 0-1.55-1.28 1.43 1.43 0 0 0-1.29 1.55 1.46 1.46 0 0 0 1.55 1.29 1.44 1.44 0 0 0 1.29-1.56zM215.13 147.6a5.79 5.79 0 0 0-2.49-.81 7 7 0 0 0-2.46.75 3.67 3.67 0 0 1 2.41-2c1.88-.27 2.54 2.06 2.54 2.06zM205.83 149.82a1.47 1.47 0 0 0-1.56-1.28 1.43 1.43 0 0 0-1.28 1.55 1.43 1.43 0 1 0 2.84-.27zM201.32 147.45a6.74 6.74 0 0 1 2.75-.79 8.42 8.42 0 0 1 2.73.77 4 4 0 0 0-2.69-2c-2.11-.3-2.79 2.02-2.79 2.02z" transform="translate(-36.92 -65.91)"/><path class="cls-17" d="M208.45 147.3s-.88 3.51-.32 4.58 2.92 1.56 2.92 1.56a9.12 9.12 0 0 1-1.89-2.1 18.53 18.53 0 0 1-.71-4.04z" transform="translate(-36.92 -65.91)"/><path class="cls-12" d="M209.8 153.83c-.1-.25-2.26-.2-2.2.25.11.81 2.33.05 2.2-.25z" transform="translate(-36.92 -65.91)"/><path class="cls-17" d="M203.65 155.9a4 4 0 0 0 3 2.46 4 4 0 0 0 4.31-1.7 9.35 9.35 0 0 1-7.31-.76z" transform="translate(-36.92 -65.91)"/><path class="cls-1" d="M291.8 326.44V338h118.05v-11.56a10.91 10.91 0 0 0-10.92-10.91h-96.22a10.9 10.9 0 0 0-10.91 10.91z" transform="translate(-36.92 -65.91)"/><path class="cls-11" d="M340.13 294.76s-47.82 11.45-55.77 16.24S257 405.45 257 405.45s18.75 6.53 24.43 14.2c9.38-40.9 22.8-84.18 22.8-84.18S342 325 349.7 322.12s19.88-11.64 23-23-29.63-6.12-32.57-4.36z" transform="translate(-36.92 -65.91)"/><path class="cls-18" d="M281.45 419.65h-46.62a33.1 33.1 0 0 1 2.4-2.79c1.54-1.58 3.6-3.39 5.56-4 3.8-1.27 9.55-5.12 11.61-7s10.14-6.29 13.3-5.53c2.61.62 10.63 8.76 13.07 15.36.15.41.27.81.38 1.2a8.06 8.06 0 0 1 .3 2.76z" transform="translate(-36.92 -65.91)"/><path class="cls-19" d="M281.45 419.65h-46.62a50.2 50.2 0 0 1 4.38-2.79h41.94a8.06 8.06 0 0 1 .3 2.79z" transform="translate(-36.92 -65.91)"/><path class="cls-20" d="M250.13 410.12c-3.46 2.36-9 4-9.95 5.06l-.93 1.09 20.15-.27s-3.88-6.22-9.27-5.88z" transform="translate(-36.92 -65.91)"/><path class="cls-19" d="M273.4 406s-6.45 4.36-10.18 5.69-7 2.27-7.65 5.62l-.76.13s-.76-1.77 2.65-4.23 5.44-2 8.67-3.93 6.76-4.23 6.76-4.23z" transform="translate(-36.92 -65.91)"/><path class="cls-18" d="M352.11 419.65H305.48a34.54 34.54 0 0 1 2.41-2.79c1.54-1.58 3.6-3.39 5.56-4 3.79-1.27 9.55-5.12 11.6-7s10.15-6.29 13.31-5.53c2.6.62 10.63 8.76 13.06 15.36.15.41.28.81.38 1.2a8.08 8.08 0 0 1 .31 2.76z" transform="translate(-36.92 -65.91)"/><path class="cls-19" d="M352.11 419.65H305.48a50.2 50.2 0 0 1 4.38-2.79h41.94a8.08 8.08 0 0 1 .31 2.79z" transform="translate(-36.92 -65.91)"/><path class="cls-20" d="M320.78 410.12c-3.45 2.36-9 4-9.94 5.06l-.93 1.09 20.15-.25s-3.88-6.24-9.28-5.9z" transform="translate(-36.92 -65.91)"/><path class="cls-19" d="M344.05 406s-6.45 4.36-10.18 5.69-7 2.27-7.65 5.62l-.76.13s-.76-1.77 2.66-4.23 5.44-2 8.66-3.93 6.77-4.23 6.77-4.23z" transform="translate(-36.92 -65.91)"/><path class="cls-5" d="M402.39 311.75c-1.91 4.9-38.13 23.23-38.13 23.23l-12.15 84.67s-2.14-1.27-5.23-3l-1.59-.88c-6.27-3.44-16.84-9.7-20.64-9.83 3.62-20 8.5-62.88 10.42-75.87s26.2-27.07 26.2-27.07l5.12-8.52 19.47 4.69 10.36 2.5 6.39 1.54a11.43 11.43 0 0 1-.22 8.54z" transform="translate(-36.92 -65.91)"/><path class="cls-11" d="M396.22 301.69c-1.83 4.61-4.57 8.59-5.9 9.64s-15.16 9.33-23.64 14.39a16 16 0 0 0-7.68 11.57l-12.14 79.37-1.59-.88 12.31-79.61a16 16 0 0 1 7.5-11.44c4.89-3 12.22-7.49 20.82-12.83a16.56 16.56 0 0 1-.06-12.71z" transform="translate(-36.92 -65.91)"/><path class="cls-14" d="M286.16 264s27.85 17.79 45.76 8.51c7.35-9.51 14.18-22.71 14.08-23.09s-16-6.83-16-6.83l-10.57 15.34-30 .12s-5.72 2.2-3.27 5.95z" transform="translate(-36.92 -65.91)"/><path class="cls-17" d="M275.27 259.34l8.52 4.26s6.68.57 6.77-2.08-8.14-10.84-9.32-11.08-6.06 1.52-6.49 2-1.56 6.34-1.56 6.34z" transform="translate(-36.92 -65.91)"/><path class="cls-12" d="M275.79 260.41c.1 1.19-.66 1.91-1.66 1.39-.66 1.52-1.94.92-3.31-.66-1.56-1.8-1.79-3.07-1.66-4 .24-1.71 1-2 1-2a15.8 15.8 0 0 1 1-2.23 3 3 0 0 1 .56-.7c.75-.67 7.41.92 7.41.92l-4.58.56.61 3.87c.37 1.44.58 2.28.63 2.85z" transform="translate(-36.92 -65.91)"/><path class="cls-17" d="M274.13 261.8a12.29 12.29 0 0 1-4-6.72 15.8 15.8 0 0 1 1-2.23 18.09 18.09 0 0 0 3 8.95z" transform="translate(-36.92 -65.91)"/><path class="cls-14" d="M280.1 249.83s-5.11-1.09-6.53.33-3.7 10-2.28 11.17 4.41-7.81 4.41-7.81l4.3-.05z" transform="translate(-36.92 -65.91)"/><path class="cls-14" d="M280.67 246.75c-2.46.47-2.56 4.64-2.46 6.53s.37 7.67 1.42 7.86c.78.14 1.4-5.45 1.66-8.23a.61.61 0 0 1 1.09-.32c.88 1.13 1.76 2.26 2.6 3.42s1.74 2.21 1.4 3.76c-.67 3.06-4.31 2.52-5.81 4.73-1.18 1.75-.69 4.07.71 3.41.81-.38 2.28-1.94 3.51-2.13a27.21 27.21 0 0 0 5.64-1.25 4 4 0 0 0 2.45-1.87c1.53-3.18-1.57-6.35-3.48-8.58a38.85 38.85 0 0 0-6.44-6.25c-.56-.41-1.53-1.23-2.29-1.08z" transform="translate(-36.92 -65.91)"/><path class="cls-21" d="M339.14 221.47c-4.92 1.84-17.28 29.35-17.28 29.35s16.05 6.11 20.45 11.08c5.26-12.78 10.09-21.45 9.8-28.41s-4.78-15.1-12.97-12.02z" transform="translate(-36.92 -65.91)"/><path class="cls-3" d="M404.9 306.26l-64.77-11.5 6.11-20-.85-6.55-2.56-19.73s-5-24.71-3.69-27 14.2-9.52 14.2-9.52c1.71-1.42 11.22-2.56 13.92-2s22.45 6.39 26 9.66S406.61 260.24 407 274s-2.1 32.26-2.1 32.26z" transform="translate(-36.92 -65.91)"/><path class="cls-21" d="M384.5 279.16c-.43 1.91-38.26-4.43-38.26-4.43l-.85-6.55c9.29 1.38 39.47 9.33 39.11 10.98z" transform="translate(-36.92 -65.91)"/><path class="cls-12" d="M414.54 269c.21-.44.12-8.05-5-19-5.87.19-15.05 5.11-15.05 5.11l2.84 10.8s1.89 6.15 3.22 7.1 9.45 5.65 13.99-4.01z" transform="translate(-36.92 -65.91)"/><path class="cls-21" d="M391.46 218.44c1-1.12 12.31 9 16 17.42 3.55 8.11 5.3 13.63 5.3 13.63s-3.69 4.27-11.27 6.44-10.7 1.42-10.7 1.42-9.18-27.46.67-38.91z" transform="translate(-36.92 -65.91)"/><path class="cls-14" d="M372 278.15s13.65 1.55 19.18 1.8 13.72.55 18.62-4.75 5-8 3.34-10.72-7.46-3.35-12-1.77-11.41 5.15-15.08 6a86.09 86.09 0 0 1-10 1.34z" transform="translate(-36.92 -65.91)"/><path class="cls-12" d="M377.91 270.52a8.22 8.22 0 0 1 1.16 6.4c-.82 3.82-7.75 1-9.22-3.32 2.15-4.39 8.06-3.08 8.06-3.08z" transform="translate(-36.92 -65.91)"/><path class="cls-17" d="M361.17 272.25c-.4.05-4.41-.89-4.84-.5s0 2.62 3.66 3.28 4.55-1.36 4.55-1.36a12.4 12.4 0 0 0 3 1.9 5 5 0 0 0 3.21.17s3.81 2.64 4.74 2 1.63-3.66-.06-6.39-4.76-4.18-6.41-4-7.45 4.85-7.85 4.9z" transform="translate(-36.92 -65.91)"/><path class="cls-14" d="M377.91 270.52c-.2-1.21-1.8-.37-1.8-.37a2 2 0 0 0-.73-2.31c-.48-.32-1.73.52-1.73.52s.6-1.83-.07-2.28-2.21 0-2.21 0-.46-.27-1.11-.6a5 5 0 0 0-3 .37 12.51 12.51 0 0 0-5.07 5.48.92.92 0 0 0 .57 1.29h.13a.92.92 0 0 0 .93-.26c1.5-1.62 4.36-3.87 4.78-3.72l1.1.39c-.1.17-3.75 6.63-3.17 7.44s1 .83 1.87-.1a62.37 62.37 0 0 0 4-5.92s-2.38 6.64-1.93 7.23.72.85 1.52.36 3-5.92 3-5.92-1.27 6.71-.07 7 3.2-7.38 2.99-8.6z" transform="translate(-36.92 -65.91)"/><path class="cls-12" d="M371.37 266.07s-.46.19-1.7 3l-1.1-.39 1.69-3.21c.65.33 1.11.6 1.11.6z" transform="translate(-36.92 -65.91)"/><path class="cls-11" d="M369.18 194.26a64 64 0 0 1-3.72 8.63l-.89-1.42-2.66-4.23-16.67-.24h-1.58s-3.87-4.2-4-6.22 2.11-6.87 2.17-7c-.1.1-3 2.81-3.06 1.77s3.39-4.19 3.39-4.19-2.83-3.31-2.1-4 4.28 1.94 4.28 1.94a6.54 6.54 0 0 1 4-3.23c3-1 14.69.24 18.56 4.68s4.1 8.42 2.28 13.51z" transform="translate(-36.92 -65.91)"/><path class="cls-9" d="M368.31 192.25a70.86 70.86 0 0 1-3.74 9.22l-2.66-4.23-16.67-.24-3-3.51a8.43 8.43 0 0 1-1.23-4.31c.15-2.13 4.6-6.25 4.6-6.25s-.34-2 0-2.65 1.38-1.33 5.45-1.38 12.21 1.28 14.86 3.79a9.75 9.75 0 0 1 2.39 9.56z" transform="translate(-36.92 -65.91)"/><path class="cls-22" d="M355.81 219.05s-1.38 12.64-.13 13.06 2.79-3.34 2.79-3.9.14-9.32.14-9.32z" transform="translate(-36.92 -65.91)"/><path class="cls-23" d="M353.67 208.54s-4.11 1.7-4.54 4.45c-.2 1.26-.95 4-.52 5.54s3.79 7.1 3.79 7.1-.43-2.84.33-4.31 3.08-2.27 3.08-2.27 2.5 1.61 3.64 6.35c6.06-2.89 10.56-4.93 11.6-8.67s.66-5.35.33-6.49-3.27-3.31-4.45-3.83-9.75 0-13.26 2.13z" transform="translate(-36.92 -65.91)"/><path class="cls-22" d="M350.93 214.74a3.1 3.1 0 0 1 .42-3.26c1.28-1.76 6.44-4.36 8.81-4.55s6.82.43 6.91 2.42-8.47 9.56-16.14 5.39z" transform="translate(-36.92 -65.91)"/><path class="cls-12" d="M366.79 213.09c-1.66 2-7.91 5.53-11 6-2.33-.76-5.17-4.26-4.88-4.31s2.84-2.51 3.12-3.88a9.49 9.49 0 0 0-.27-1.2 14.92 14.92 0 0 0-1.53-3.44c-1.09-5.16 10.28-10.42 11.18-8.81.22.41.64 1.32 1.15 2.47 1.51 3.42 3.79 8.94 4 9.23s-.11 1.95-1.77 3.94z" transform="translate(-36.92 -65.91)"/><path class="cls-17" d="M364.58 199.88a11.32 11.32 0 0 1-4.37 6.27 28.15 28.15 0 0 1-6.43 3.51 14.92 14.92 0 0 0-1.53-3.44c-1.09-5.16 10.28-10.42 11.18-8.81.22.41.64 1.32 1.15 2.47zM352.75 214.88c-.66.47 2.63 2.14 3.77 2.14s8.73-3.41 8.45-4-8.6 2.84-8.6 2.84-2.7-1.61-3.62-.98z" transform="translate(-36.92 -65.91)"/><path class="cls-12" d="M338.9 194.32c0 1.33 1.77 4.42 3.57 5.12a5.84 5.84 0 0 0 2.66.51s0-.27-.1-.71c0-.15-.06-.33-.1-.53-.45-2.46-1.73-7.7-4.38-7.21-1.41.27-1.65 1.5-1.65 2.82zM369.19 192.61c0 1.42-1.9 4.75-3.83 5.5a6.15 6.15 0 0 1-2.86.54s0-.28.11-.76c0-.16.06-.35.1-.56.49-2.65 1.86-8.28 4.71-7.75 1.52.29 1.77 1.6 1.77 3.03z" transform="translate(-36.92 -65.91)"/><path class="cls-17" d="M368 193.5s-.27-1.3-1.33-1.39-2.12 1.81-2.12 1.81 1.89-.32 2.06 1.14c.13 1.72-3.14 2.63-4 2.83 0-.16.06-.35.1-.56a4.05 4.05 0 0 0 2.44-1.78c.23-.78-.36-1.14-1.46-.91.67-2.17 2.12-3.82 3.22-3.82 1.8 0 1.09 2.68 1.09 2.68z" transform="translate(-36.92 -65.91)"/><path class="cls-14" d="M363.81 190.31s0 .89-.1 2.31c-.06 1.26-.15 2.94-.28 4.79-.26 3.62-2.46 5.5-5 7.06-2.32 1.42-8.33 4.31-11.27 2.65-2.47-1.4-4-11.42-4.46-15.74-.08-.81-.13-1.41-.13-1.73-.05-2 3.6-5.54 3.6-5.54a8.19 8.19 0 0 0 5.25 4.21c3.77.95 12.39 1.99 12.39 1.99z" transform="translate(-36.92 -65.91)"/><path class="cls-12" d="M363.81 190.31s0 .89-.1 2.31c-3.42-.39-12-1.46-14.2-2.59-2.75-1.42-3.41-3-3.41-3l-3.42 4.38c-.08-.81-.13-1.41-.13-1.73-.05-2 3.6-5.54 3.6-5.54a8.19 8.19 0 0 0 5.25 4.21c3.79.92 12.41 1.96 12.41 1.96z" transform="translate(-36.92 -65.91)"/><path class="cls-17" d="M348.26 201a4.48 4.48 0 0 0 4.11.69 5.3 5.3 0 0 0 4-4.08 9.91 9.91 0 0 1-8.11 3.39zM349.32 192.87s1.23 2 .9 3.5a4.62 4.62 0 0 1-1.94 2.51s1.42-1.99 1.04-6.01z" transform="translate(-36.92 -65.91)"/><path class="cls-12" d="M351.19 198.48c-.17-.58-2.17.14-1.85.35s2.03.25 1.85-.35z" transform="translate(-36.92 -65.91)"/><path class="cls-11" d="M354.73 194.17a1.27 1.27 0 0 0-.44-.85l-.28-.18a1.28 1.28 0 0 0-1.52.32 1.32 1.32 0 0 0-.3.95 1.28 1.28 0 0 0 .45.85l.27.18a1.31 1.31 0 0 0 .67.12 1.26 1.26 0 0 0 .85-.45 1.29 1.29 0 0 0 .3-.94zM351.51 191.87a7.07 7.07 0 0 1 2.34-.42 18.94 18.94 0 0 1 2.38.39 2.81 2.81 0 0 0-2.59-1.42c-1.21.02-2.13 1.45-2.13 1.45zM347.42 194.17a1.32 1.32 0 0 0-.45-.85l-.28-.18a1.26 1.26 0 0 0-.69-.14 1.29 1.29 0 0 0-.86.44 1.32 1.32 0 0 0-.29.95 1.27 1.27 0 0 0 .44.85l.28.18a1.27 1.27 0 0 0 .67.12 1.26 1.26 0 0 0 .85-.45 1.33 1.33 0 0 0 .33-.92zM343.66 192.12a7.07 7.07 0 0 1 2.34-.42 18.94 18.94 0 0 1 2.38.39 2.81 2.81 0 0 0-2.59-1.42c-1.21.02-2.13 1.45-2.13 1.45z" transform="translate(-36.92 -65.91)"/><rect class="cls-21" x="189.67" y="115.87" width="112.92" height="77.13" rx="6.6"/><rect class="cls-3" x="186.7" y="115.87" width="112.92" height="77.13" rx="6.6"/><path class="cls-24" d="M291.83 220.26h-23.57a.85.85 0 0 1-.86-.85.86.86 0 0 1 .86-.86h23.57a.87.87 0 0 1 .86.86.86.86 0 0 1-.86.85zM291.83 225.11h-23.57a.85.85 0 0 1-.86-.85.86.86 0 0 1 .86-.86h23.57a.87.87 0 0 1 .86.86.86.86 0 0 1-.86.85zM291.83 210.32h-23.57a.86.86 0 0 1-.86-.86.85.85 0 0 1 .86-.85h23.57a.86.86 0 0 1 .86.85.87.87 0 0 1-.86.86zM291.83 215.17h-23.57a.86.86 0 0 1-.86-.86.85.85 0 0 1 .86-.85h23.57a.86.86 0 0 1 .86.85.87.87 0 0 1-.86.86zM265.94 237.68a2.63 2.63 0 0 1 2.63-2.63h19.74a2.63 2.63 0 0 1 2.63 2.63 2.63 2.63 0 0 1-2.63 2.63h-19.74a2.63 2.63 0 0 1-2.63-2.63z" transform="translate(-36.92 -65.91)"/><path class="cls-21" d="M287.86 273.56s-3.72-15 .07-35.17h-19.17c-2.14 6.65-7.93 24.6-6.82 37.51h40.54v-2.34zm-13-9.22c-2.45 0-4.45-3.08-4.45-6.87s2-6.88 4.45-6.88 4.45 3.08 4.45 6.88-2.02 6.87-4.48 6.87z" transform="translate(-36.92 -65.91)"/><path class="cls-24" d="M302.48 273.56v2.34h-16.32c-5.19-11.18-1.67-32-.61-37.51h2.38c-3.79 20.13-.07 35.17-.07 35.17z" transform="translate(-36.92 -65.91)"/><rect class="cls-21" x="73.71" y="115.87" width="112.92" height="77.13" rx="6.6"/><rect class="cls-3" x="70.74" y="115.87" width="112.92" height="77.13" rx="6.6"/><path class="cls-24" d="M175.87 220.26H152.3a.86.86 0 0 1-.86-.85.87.87 0 0 1 .86-.86h23.57a.86.86 0 0 1 .86.86.85.85 0 0 1-.86.85zM175.87 225.11H152.3a.86.86 0 0 1-.86-.85.87.87 0 0 1 .86-.86h23.57a.86.86 0 0 1 .86.86.85.85 0 0 1-.86.85zM175.87 210.32H152.3a.87.87 0 0 1-.86-.86.86.86 0 0 1 .86-.85h23.57a.85.85 0 0 1 .86.85.86.86 0 0 1-.86.86zM175.87 215.17H152.3a.87.87 0 0 1-.86-.86.86.86 0 0 1 .86-.85h23.57a.85.85 0 0 1 .86.85.86.86 0 0 1-.86.86zM150 237.68a2.63 2.63 0 0 1 2.63-2.63h19.74a2.63 2.63 0 0 1 2.63 2.63 2.63 2.63 0 0 1-2.63 2.63h-19.76a2.63 2.63 0 0 1-2.61-2.63z" transform="translate(-36.92 -65.91)"/><path class="cls-21" d="M171.9 273.56s-3.72-15 .07-35.17H152.8c-2.14 6.61-7.93 24.61-6.8 37.51h40.54v-2.34zm-13-9.22c-2.46 0-4.45-3.08-4.45-6.87s2-6.88 4.45-6.88 4.44 3.08 4.44 6.88-2.01 6.87-4.46 6.87z" transform="translate(-36.92 -65.91)"/><path class="cls-24" d="M186.52 273.56v2.34H170.2c-5.19-11.18-1.67-32-.61-37.51H172c-3.79 20.13-.07 35.17-.07 35.17z" transform="translate(-36.92 -65.91)"/><path class="cls-18" d="M36.54 209.97h8.56V354h-8.56zM126.66 209.97h8.56V354h-8.56z"/><path class="cls-19" d="M415.51 209.97v144.04h-8.56V218.54h-75.34v135.47h-8.56V218.54H36.54v-8.57h378.97z"/><path class="cls-3" d="M367.25 284.45V341H325a8.84 8.84 0 0 1-8.84-8.85 20.27 20.27 0 0 0-20.27-20.26H147.14a21.38 21.38 0 0 0-20.27 14.55A21.4 21.4 0 0 1 106.6 341H73.46v-56.55z" transform="translate(-36.92 -65.91)"/><path class="cls-1" d="M330.33 218.54h85.19v56.51h-85.19z"/><path class="cls-17" d="M559.11 378.83c-5.4 23-20.17 40.62-35.8 40.62H417.92c-41.47-8.81-37.5-78.41-23.29-87.5a35.36 35.36 0 0 1 8.63-4 32.24 32.24 0 0 1 18.92-.23s.44-30.22 12.22-40.62c22.35-19.73 66.14-15.83 94.15-.94q3.38 1.78 6.41 3.78c27.27 17.87 29.54 65.88 24.15 88.89z" transform="translate(-36.92 -65.91)"/><path class="cls-13" d="M522.18 373.71c-17.62 14.49-54.54 23-86.36 12.5s-37.22-31-36.08-44.88c.56-6.91 2.11-11 3.52-13.41a32.24 32.24 0 0 1 18.92-.23s.44-30.22 12.22-40.62c17.18-15.16 47-16.37 72.61-9.36a37.21 37.21 0 0 1 27.39 36.65v.27c-.28 13.06-6 13.35-6 13.35s3.69 2.27 8.52 9.94 2.87 21.31-14.74 35.79z" transform="translate(-36.92 -65.91)"/><path d="M509.68 399.85s-.43 14.91 12.36 13.21c13.68-1.83 33.23-26.42 32-54.55-2.55-6-7.34-1.31-13.21 8.95-11.98 20.88-24.33 19.6-31.15 32.39z" transform="translate(-36.92 -65.91)" fill="#f48f9c"/><path class="cls-12" d="M441.36 300.28s-3.62 8.66-4.26 11.5-1.35 6-.22 8c8.24-2.27 13.36-4 13.36-4l6.17-11.5z" transform="translate(-36.92 -65.91)"/><path class="cls-12" d="M437.71 323s-3.69-6 1.61-10.22c6-4.83 12.69 1.7 11.56 6.15s-8.43 9.28-13.17 4.07z" transform="translate(-36.92 -65.91)"/><path class="cls-26" d="M451.35 273c-3.24 1.2-11.57 24.18-13.45 31.28 8.56 2.5 17.32 6 17.32 6s7.3-11.48 7.3-22.33-3.36-17.85-11.17-14.95z" transform="translate(-36.92 -65.91)"/><path class="cls-17" d="M444.91 316.9l3.48 3.48a18.6 18.6 0 0 1 2.91-2.87 4.93 4.93 0 0 1 3.74.05c.76.47.83 1.42-.09 1.7a6.62 6.62 0 0 0-2.61 1.57c-.18.22-2.74 3.24-4.09 3.59a28.43 28.43 0 0 1-5.33.15s-3.41-5.97 1.99-7.67z" transform="translate(-36.92 -65.91)"/><path class="cls-14" d="M445.48 326.84c-1.14.35-1.42-1.21-1.42-1.21a1.63 1.63 0 0 1-1 .52 2.4 2.4 0 0 1-1.38-.23 2.66 2.66 0 0 1-.64.93c-.75.63-1.82.15-3.55-2a10.57 10.57 0 0 0 .79 4.62 1.16 1.16 0 0 1-.06 1.23.67.67 0 0 1-.8.12c-2.22-.86-2.77-6.47-2.77-7.11 0-.31.55-.59 1.11-.79a11.12 11.12 0 0 1 1.16-.34 1.48 1.48 0 0 1 .64-1.56c.93-.71 1.5-.36 1.5-.36a4.62 4.62 0 0 1 .49-2.2c.5-.57 2.21-.57 2.21-.57.28-.85.63-1.77 1.63-2.06s1.49 1.07 1.49 1.07.35 2.13.57 4 1.16 5.58.03 5.94z" transform="translate(-36.92 -65.91)"/><path class="cls-12" d="M438.25 330.7a6.79 6.79 0 0 1-1.2-1.78 15.73 15.73 0 0 1-1.26-6 11.12 11.12 0 0 1 1.16-.34s-.09.29.57 2.27a10.57 10.57 0 0 0 .79 4.62 1.16 1.16 0 0 1-.06 1.23zM441.71 325.92a2.66 2.66 0 0 1-.64.93c-.78-.68-1.71-2.18-1.8-5.45a9.35 9.35 0 0 0 2.44 4.52zM444.06 325.63a1.63 1.63 0 0 1-1 .52 13.09 13.09 0 0 1-1.12-7.07c.41 1.7 2.12 6.55 2.12 6.55z" transform="translate(-36.92 -65.91)"/><path class="cls-3" d="M452.22 366.4l-1.42 1.18a1.68 1.68 0 0 0-.59 1.5 58.66 58.66 0 0 1 0 6.63c-.07 2.13-2.4 7.11-2.69 9.74s1 6.05 2.29 8.74 4.55 4.52 4.55 4.52 2.48.14 3.12-.71c-1.63-8.52-2.91-30-5.26-31.6z" transform="translate(-36.92 -65.91)"/><path class="cls-5" d="M465.79 376.41c-1.14 2.06-2.42 9.73-3.05 13.42s-4.19 9.73-6.68 8.1c-1.16-.76-2.55-2.88-3.72-5.2-.33-.65-.64-1.31-.92-2a19.48 19.48 0 0 1-1.61-5.13c-.21-2.77 2.63-8.73 2.7-11.5s-.93-7.1-.29-7.74 6.75-5 6.75-5 1.65 3 3.44 6.62c.21.44.43.88.65 1.33 2.15 4.52 3.32 6.04 2.73 7.1z" transform="translate(-36.92 -65.91)"/><path class="cls-11" d="M463.06 369.38c-1.86 2.36-3.88 5.26-4.51 7.46-1.28 4.4-1.43 6.67-2.7 10.37a16.47 16.47 0 0 1-3.51 5.52c-.33-.65-.64-1.31-.92-2a14.54 14.54 0 0 0 3-3.71c1-2.27 1.56-6.39 2.55-10.79.51-2.25 3.06-5.54 5.43-8.22.22.48.44.92.66 1.37z" transform="translate(-36.92 -65.91)"/><path class="cls-3" d="M459.21 374.67l6.79 5.06a1.6 1.6 0 0 0 2.43-.66 1 1 0 0 0-.4-1.28l-7.64-4.79a1 1 0 0 0-1.57.67 1 1 0 0 0 .39 1zM455.24 383.76l3.26 2.44 2.31 1.72a7.34 7.34 0 0 0 1.37 1 1.37 1.37 0 0 0 1.65-.51c1.05-1.7-2.56-3.24-3.61-3.91q-1.89-1.23-3.8-2.44a1 1 0 0 0-1.18 1.71zM456.75 379.36l3.4 2.54 2.33 1.74c.57.42 1.25 1.16 2 1a1.28 1.28 0 0 0 .52-.26 1.43 1.43 0 0 0 .38-1.49c-.26-.77-1.28-1.32-1.94-1.73L461 379.6l-3.09-2a1 1 0 0 0-1.58.67 1.06 1.06 0 0 0 .42 1.09z" transform="translate(-36.92 -65.91)"/><path class="cls-5" d="M443.32 420.06h-43.09a1.48 1.48 0 0 1-1.42-1.93c.09-.26.18-.54.29-.81a5.64 5.64 0 0 1 2.25-3.13 53.37 53.37 0 0 0 9.57-5.58 57.19 57.19 0 0 0 5.11-4.27c1.7-1.33 5.59-2 9.58-2h1.66c4.53.16 8.83 1.1 9.88 2.76 1.43 2.29 3.83 8.56 5.18 12.22.6 1.68.99 2.74.99 2.74z" transform="translate(-36.92 -65.91)"/><path class="cls-11" d="M427.27 402.34c-2.84 3.3-6.4 7.08-9.06 8.73-4.64 2.86-7.17 3.33-9.67 9H407a15.84 15.84 0 0 1 3.33-5c2.46-2.17 9.18-6.15 12.59-9.75.86-.9 1.78-1.93 2.67-3z" transform="translate(-36.92 -65.91)"/><path class="cls-3" d="M410 410.27l3.94 2.69a1.14 1.14 0 0 0 1.35-.06 1.12 1.12 0 0 0 0-1.74l-3.66-2.89a1.11 1.11 0 0 0-1.34 0l-.28.2a1.12 1.12 0 0 0-.01 1.8zM413.57 407.62l3.94 2.69a1.11 1.11 0 0 0 1.34-.07 1.11 1.11 0 0 0 0-1.73l-3.66-2.89a1.13 1.13 0 0 0-1.34 0l-.28.2a1.12 1.12 0 0 0 0 1.8zM443.32 420.06h-43.09a1.48 1.48 0 0 1-1.42-1.93c.09-.26.18-.54.29-.81h43.23c.6 1.68.99 2.74.99 2.74zM417.08 404.64l3.87 2.65a1.1 1.1 0 0 0 1.32-.07 1.09 1.09 0 0 0 0-1.7l-3.6-2.84a1.08 1.08 0 0 0-1.31 0l-.28.19a1.09 1.09 0 0 0 0 1.77z" transform="translate(-36.92 -65.91)"/><path d="M512.8 304.26c-.09 10.51-.75 31.72-2 33.14s-53.78 1.8-55.3-.1 7.3-17.8 7.3-17.8a8.12 8.12 0 0 1-1.8-.95c-.57-.47.66-2.46.66-2.46a6.77 6.77 0 0 1-2.08-.85c-.29-.38 2-3.31 2-3.31s-7-24.06-8.05-27-3.41-10.51-2.18-11.93c.86-1 5.67-3.31 8.49-4.62 1.2-.56 2-.93 2-.93s24.12-4.77 25-4.81a28.49 28.49 0 0 1 3.28.9c5.77 1.8 17.17 5.66 17.81 6.24.9.77 4.97 23.97 4.87 34.48z" transform="translate(-36.92 -65.91)" fill="#fcb912"/><path class="cls-26" d="M490.16 263.55c-1.88 4.06-5.94 9.82-14 10.76a18.14 18.14 0 0 1-16.28-5.92c1.2-.56 2-.93 2-.93s24.12-4.77 25-4.81a28.49 28.49 0 0 1 3.28.9z" transform="translate(-36.92 -65.91)"/><path class="cls-3" d="M464.51 308z" transform="translate(-36.92 -65.91)"/><path class="cls-26" d="M498 303.28c1.23-1.33-.18-13.18-2.73-14.6-1.28-.71-9.3 2.37-15.72 2.7s-15.63-.54-16.29.65c-1.33 2.36 1 11.28 1.79 12.26s31.74.31 32.95-1.01z" transform="translate(-36.92 -65.91)"/><path d="M509.58 352.06c-3 6.14-13.14 6.34-23.66 6.26h-2.68c-3.33 0-6.64 0-9.7.15-13.59.83-40.48-5.27-39.65-4.44s5.27 42.7 9.43 65.44c-1.2-1.76-4.1-3.7-7.61-5.57l-1.19-.62a175.55 175.55 0 0 0-19.82-8.15l1.72-6.46s-7-53.38-7-55-1.7-14.77 8.38-15.91c13.09-1.47 51.32 6.63 51.32 6.63s7-.26 15.12-.42h2.68c10.12-.16 21.09-.12 22.68.75 3.03 1.54 4.14 8.75-.02 17.34z" transform="translate(-36.92 -65.91)" fill="#1a7db9"/><path class="cls-29" d="M433.89 354c-.2-.51-3.33-6.25-2.9-7.34s2.7 3.27 2.7 3.27 1.42-4.95 2.84-3.76-2.64 7.83-2.64 7.83z" transform="translate(-36.92 -65.91)"/><path class="cls-29" d="M484.94 347.87c-4.81.07-9.63-.3-14.44-.6s-9.63-.38-14.44-.64l-12.92-.71q-3.18-.17-6.35-.39a60.88 60.88 0 0 0-6.47-.39c-1.83.06-3.39.6-3.78 2.56a15 15 0 0 0 .39 5.25c.68 4.22 1.3 8.44 1.94 12.67 1.29 8.58 2.6 17.16 3.84 25.76 1.08 7.48 2 15 3 22.49l-1.19-.62c-.65-3.72-1.35-7.43-2-11.15-.84-5-1.64-10-2.43-15-1.43-8.93-2.77-17.87-4.15-26.8q-.51-3.29-1-6.55a25.7 25.7 0 0 1-.5-5.53 4.88 4.88 0 0 1 2.14-3.86c1.44-.9 3.12-.79 4.74-.73 8.92.35 17.84.69 26.75 1.1 4.52.21 9 .57 13.53.75s8.94.3 13.37.81a.79.79 0 0 1-.03 1.58z" transform="translate(-36.92 -65.91)"/><path class="cls-29" d="M486.9 333.85c0 .64-.09 1.27-.13 1.9-.23 3.75-.46 7.48-.61 11.23s-.19 7.47-.24 11.2v.14h-2.68c-.05-3.75 0-7.51.17-11.26s.34-7.56.66-11.33l.15-1.8zM419.34 336.78c1 1.28-2.55 9.52-4.54 9.09s-3.7-7-3.13-8.66 6.68-1.71 7.67-.43z" transform="translate(-36.92 -65.91)"/><path class="cls-23" d="M522.32 352.55c-3.69 5.25-19.6 11.79-31.67 16.47s-21.74 13.5-21.74 13.5-4.26-.71-8.24-6c-2-2.66-2.67-6.6-2.84-9.83 0-.58 0-1.14-.05-1.66a34 34 0 0 1 .2-4c11.5-6.39 47.72-25.57 51.6-26.47a23.41 23.41 0 0 1 4-.63 15 15 0 0 1 2.32 0 10.09 10.09 0 0 1 6.81 3.47c3.87 4.49 3.29 9.89-.39 15.15z" transform="translate(-36.92 -65.91)"/><path class="cls-29" d="M515.94 334c-13.93 7.18-41 23.51-44.19 25.35-2.6 1.5-9.86 5.26-13.92 7.35 0-.58 0-1.14-.05-1.66a136.65 136.65 0 0 0 14.12-7c6.72-3.8 31.18-18.78 41.72-24.12a15 15 0 0 1 2.32.08z" transform="translate(-36.92 -65.91)"/><path class="cls-12" d="M526.72 314.48c-.28 2.84-1.56 5.26-8.94 10.09s-27.42 6.81-27.42 6.81l-3.56-6.56 23.3-11.19-.65-3.39-1.33-7 14.06-5s4.82 13.4 4.54 16.24z" transform="translate(-36.92 -65.91)"/><path class="cls-17" d="M521.18 312.78c-5.54-1.71-11.08.85-11.08.85l-.65-3.39c3.07-.41 8.37-.24 11.73 2.54z" transform="translate(-36.92 -65.91)"/><path class="cls-26" d="M508 269.79c-4.18-1.5-7.53 9.8-6.43 17.66s5.93 19.72 5.8 19.31 18.89-7.31 18.89-7.31-11.03-27.06-18.26-29.66z" transform="translate(-36.92 -65.91)"/><path class="cls-12" d="M489.07 323.45a8.22 8.22 0 0 1 2.58 6c.08 3.91-7.31 2.77-9.72-1.13 1.07-4.8 7.14-4.87 7.14-4.87z" transform="translate(-36.92 -65.91)"/><path class="cls-17" d="M473.17 328.94c-.38.14-4.5.14-4.83.61s.57 2.56 4.31 2.37 4.11-2.37 4.11-2.37a12.66 12.66 0 0 0 3.32 1.19 5.08 5.08 0 0 0 3.17-.57s4.31 1.7 5.07.85.75-3.93-1.52-6.2-5.58-3-7.15-2.41-6.1 6.39-6.48 6.53z" transform="translate(-36.92 -65.91)"/><path class="cls-14" d="M489.07 323.45c-.47-1.14-1.84 0-1.84 0a2 2 0 0 0-1.23-2.08c-.54-.2-1.57.9-1.57.9s.17-1.92-.59-2.2-2.15.5-2.15.5-.51-.17-1.22-.34a4.92 4.92 0 0 0-2.85 1.05c-2.18 1.75-3.32 4.87-3.7 6.48a.92.92 0 0 0 .84 1.13h.14a.94.94 0 0 0 .85-.47c1.09-1.92 3.36-4.76 3.81-4.71l1.16.13c-.06.19-2.15 7.31-1.4 8s1.16.58 1.8-.52a61 61 0 0 0 2.56-6.67s-.81 7-.24 7.48.9.66 1.56 0 1.57-6.44 1.57-6.44.28 6.82 1.51 6.82 1.47-7.93.99-9.06z" transform="translate(-36.92 -65.91)"/><path class="cls-12" d="M481.69 320.61s-.4.28-1 3.3l-1.16-.13.91-3.51c.74.17 1.25.34 1.25.34z" transform="translate(-36.92 -65.91)"/><path class="cls-5" d="M367.3 233.65l1.77-1.7 54.4.43 11.79 35.5-1.28 1.78-66.68-36.01z"/><path class="cls-5" d="M367.3 233.65l54.96.22 11.72 35.79-54.68-1.63-12-34.38z"/><path class="cls-11" d="M433.98 269.66h34.04v-3.01h-33.71l-.33 3.01z"/><path class="cls-11" d="M442.29 321.72H431.4a3.14 3.14 0 0 1-2.91-2 3.12 3.12 0 0 1 2.91-4.27h10.89a3.12 3.12 0 0 1 2.9 2 3.11 3.11 0 0 1-2.9 4.27z" transform="translate(-36.92 -65.91)"/><path class="cls-12" d="M486.88 262.65s-3.4 9.43-13.38 9.27a17.09 17.09 0 0 1-11.62-4.46s4.23-1.88 4.81-3.64a13 13 0 0 0-.11-4.21c-.35-2.72-.94-5.65-.94-5.65l11.27-6s.3 2 .86 4.29c.69 2.78 1.77 6.09 3.25 7.18a27.45 27.45 0 0 0 5.86 3.22z" transform="translate(-36.92 -65.91)"/><path class="cls-17" d="M477.77 252.3a14.11 14.11 0 0 1-4.38 4.76 13.06 13.06 0 0 1-6.81 2.55c-.35-2.72-.94-5.65-.94-5.65l11.27-6s.3 2.04.86 4.34z" transform="translate(-36.92 -65.91)"/><path class="cls-12" d="M453.72 245.73c0 1.18 1.57 3.92 3.16 4.55a5.18 5.18 0 0 0 2.37.44s0-.23-.1-.62c0-.14 0-.3-.08-.47-.4-2.19-1.54-6.84-3.89-6.4-1.25.23-1.46 1.32-1.46 2.5z" transform="translate(-36.92 -65.91)"/><path class="cls-11" d="M449.17 238.44s11.46 9.33 36 6.54c-8.44-7.91-22.17-15.1-36-6.54z" transform="translate(-36.92 -65.91)"/><path class="cls-18" d="M458.17 246.45a10.58 10.58 0 0 1-2.42-2.42c-.71-1.18.1-5.82.1-5.82s-2.23 2.55-2.32 1.7 2.74-4.92 2.74-4.92-1-3.13-.52-3.55 1.42 1.42 1.42 1.42 1.71-4 5.49-4.41 15.53 2.42 17.66 7.39.15 10.65.1 10.8-13.78 3.45-22.25-.19z" transform="translate(-36.92 -65.91)"/><path class="cls-14" d="M477.2 244.6s-.05.67-.16 1.9c0 .43-.08.94-.13 1.51a7.8 7.8 0 0 1-4 6.44c-3 1.89-6.16 3.41-10.13 3.31-3.16-.07-4.95-10.39-5.55-14.61-.16-1.09-.23-1.77-.23-1.77a14.22 14.22 0 0 0 3.32-3.88c2.93 3.12 12.21 1.8 12.21 1.8a4 4 0 0 0 .38 1.89c.47 1.14 2.36 1 2.36 1l.29 1.8z" transform="translate(-36.92 -65.91)"/><path class="cls-12" d="M477.2 244.6s-.05.67-.16 1.9a7.55 7.55 0 0 1-.86-.31c-1.37-.62-1.55-1.2-1.59-3.06-1 .22-2.4.18-3-2.31-5.45 1.64-8.15.09-10.81-1.77a11.16 11.16 0 0 1-3.5 4.1c-.16-1.09-.23-1.77-.23-1.77a14.22 14.22 0 0 0 3.32-3.88c2.93 3.12 12.21 1.8 12.21 1.8a4 4 0 0 0 .38 1.89c.47 1.14 2.36 1 2.36 1l.29 1.8z" transform="translate(-36.92 -65.91)"/><path class="cls-11" d="M468.71 245.62a1.27 1.27 0 0 0-.44-.85l-.28-.18a1.27 1.27 0 0 0-1.52.33 1.28 1.28 0 0 0 .15 1.79l.28.18a1.27 1.27 0 0 0 .67.12 1.26 1.26 0 0 0 .85-.45 1.28 1.28 0 0 0 .29-.94zM461.4 245.62a1.28 1.28 0 0 0-.45-.85l-.27-.18a1.29 1.29 0 0 0-.67-.12 1.26 1.26 0 0 0-.85.45 1.26 1.26 0 0 0 .15 1.79l.27.18a1.31 1.31 0 0 0 .67.12 1.26 1.26 0 0 0 .85-.45 1.29 1.29 0 0 0 .3-.94z" transform="translate(-36.92 -65.91)"/><path class="cls-17" d="M463.3 244.32s1.23 2 .9 3.5a4.62 4.62 0 0 1-1.94 2.51s1.42-1.99 1.04-6.01zM462.24 252.41a4.49 4.49 0 0 0 4.11.68 5.31 5.31 0 0 0 4-4.08 9.94 9.94 0 0 1-8.11 3.4z" transform="translate(-36.92 -65.91)"/><path class="cls-12" d="M465.17 249.93c-.17-.58-2.16.14-1.84.36s2.02.24 1.84-.36z" transform="translate(-36.92 -65.91)"/><path class="cls-11" d="M465.61 242.69a7 7 0 0 1 2.34-.43 18.94 18.94 0 0 1 2.38.39 2.83 2.83 0 0 0-2.59-1.42c-1.21.02-2.13 1.46-2.13 1.46zM457.72 242.94a7 7 0 0 1 2.34-.43 19.31 19.31 0 0 1 2.38.39 2.81 2.81 0 0 0-2.59-1.42c-1.21.02-2.13 1.46-2.13 1.46zM467.21 249.33h-.47a3.08 3.08 0 0 1-2.4-1.72 3.21 3.21 0 0 1-.11-3.13 2.58 2.58 0 0 1 1.68-1.12 7.53 7.53 0 0 1 4.75.39 2 2 0 0 1 1 1.34 3.52 3.52 0 0 1-.66 2.63 4.3 4.3 0 0 1-3.79 1.61zm.47-5.44a6 6 0 0 0-1.57.18 2 2 0 0 0-1.23.77 2.47 2.47 0 0 0 .11 2.39 2.4 2.4 0 0 0 1.79 1.34c1.18.06 2.78-.11 3.59-1.28a2.83 2.83 0 0 0 .54-2 1.24 1.24 0 0 0-.63-.85 5.8 5.8 0 0 0-2.6-.55z" transform="translate(-36.92 -65.91)"/><path class="cls-11" d="M460.51 249.33a4.3 4.3 0 0 1-3.78-1.62 3.47 3.47 0 0 1-.66-2.63 2 2 0 0 1 1-1.34 7.54 7.54 0 0 1 4.75-.39 2.6 2.6 0 0 1 1.69 1.12 3.21 3.21 0 0 1-.11 3.13 3.11 3.11 0 0 1-2.4 1.72zm-.48-5.44a5.83 5.83 0 0 0-2.6.5 1.24 1.24 0 0 0-.63.85 2.8 2.8 0 0 0 .55 2c.8 1.17 2.39 1.34 3.59 1.28a2.38 2.38 0 0 0 1.78-1.33 2.46 2.46 0 0 0 .11-2.4 2 2 0 0 0-1.22-.77 6.17 6.17 0 0 0-1.61-.13zM471.16 245.31a.35.35 0 0 1-.34-.26.37.37 0 0 1 .25-.47s.18-.06 6.84-.87a.38.38 0 0 1 .42.32.37.37 0 0 1-.33.42c-2.57.31-6.48.8-6.73.85z" transform="translate(-36.92 -65.91)"/><path class="cls-5" d="M485.15 245s-5.58-5.78-17.7-7.77-18.13 1.16-18.28 1.23c1.23-2.74 5.59-4.73 5.59-4.73s.44-1.72 1.06-3.52a16.44 16.44 0 0 1 1.49-3.39c1.24-1.8 11-3.69 15.25-2.56s9.66 7.1 10.32 8.33c.35.65.12 2.25-.17 3.63s-.59 2.34-.59 2.34z" transform="translate(-36.92 -65.91)"/><path class="cls-11" d="M482.71 236.2c-.26 1.26-.59 2.34-.59 2.34a97.67 97.67 0 0 0-13-4.45 31.33 31.33 0 0 0-14.39-.38s.44-1.72 1.06-3.52a25.76 25.76 0 0 1 9.54-.55c6.74.91 15.33 5.44 17.38 6.56zM471.61 224.76c.57.43-1.56 2-2.32 2.09s-5.06-.43-5.21-.9 6.92-1.61 7.53-1.19z" transform="translate(-36.92 -65.91)"/><path class="cls-14" d="M482.6 244.33c0 1.43-1.9 4.75-3.83 5.51a6.15 6.15 0 0 1-2.86.54s0-.29.11-.76c0-.17.06-.36.1-.57.48-2.64 1.86-8.27 4.71-7.74 1.52.28 1.77 1.6 1.77 3.02z" transform="translate(-36.92 -65.91)"/><path class="cls-17" d="M481.41 245.23s-.27-1.3-1.33-1.4-2.12 1.82-2.12 1.82 1.89-.33 2.06 1.13c.13 1.73-3.14 2.63-4 2.84 0-.17.06-.36.1-.57a4.05 4.05 0 0 0 2.44-1.78c.23-.78-.36-1.14-1.46-.91.66-2.17 2.12-3.82 3.22-3.82 1.8 0 1.09 2.69 1.09 2.69z" transform="translate(-36.92 -65.91)"/><path d="M577.15 323.6l9.85 22.67 9.72-8.52 6.45 1.85s-3.72 13.88-11.36 21-16.74-2.1-20.81-10.4c-6.6-13.2-.66-27.86 6.15-26.6z" transform="translate(-36.92 -65.91)" fill="#047a86"/><path class="cls-17" d="M599.22 331.26s-2.73 3.84-3.16 5.84l-.43 2a9.72 9.72 0 0 0 3.71 1 4 4 0 0 0 2.14-.57 10 10 0 0 0 2.71.21c.36-.21 1.07-3.14 1.07-3.14z" transform="translate(-36.92 -65.91)"/><path class="cls-17" d="M604.32 336s1-.85 1.73-.72 3.76 3.67 3.39 4.06-2.28-.78-3.58-2.49c-.8.2-1.42.33-1.42.33z" transform="translate(-36.92 -65.91)"/><path class="cls-14" d="M606.39 340.81c-.84-.1-2.6-3.64-2.6-3.64s.09 4.62-.65 4.23-1.94-5.9-1.94-5.9.46 6.39-.46 5.8S599 335 599 335s-.13-1.15-.27-2.52a1.35 1.35 0 0 1 .51-1.23.37.37 0 0 1 .31-.09 1.93 1.93 0 0 1 1.58 1.67c1.57 0 1.66.59 2 1.87 1.12-.2 1.21.2 1.76 1.08s2.33 5.13 1.5 5.03zM597.4 339.14a2.27 2.27 0 0 1-1.77 0c-.82-.36-1.15-1.23-1.57-2.59-.3-1 .43-3.57.43-3.85s.07-2.36.64-2.64 1.29 1.71 1.29 2.92v.32a3.84 3.84 0 0 0 1.34 3.43 1.82 1.82 0 0 1 .46.53 1.32 1.32 0 0 1-.82 1.88z" transform="translate(-36.92 -65.91)"/><path class="cls-12" d="M635.75 329.89l-8.08 10.45-7.41-4.67-8.66-5.45-7.68-4.84 10.69-11.88 5.32 4.13 7.29 5.65 8.53 6.61z"/><path class="cls-17" d="M656.85 383.54c-2.13 3.25-5.3 8-8.32 12.59l-7.69-4.84 10.69-11.87z" transform="translate(-36.92 -65.91)"/><path class="cls-3" d="M672.67 395.8l-8.08 10.46-7.41-4.68c2.81-5 5.69-10.1 7-12.39z" transform="translate(-36.92 -65.91)"/><path class="cls-11" d="M704.67 394.65l-7 5.9-.94.79-5.93 5-15.36 12.9a8.72 8.72 0 0 1-2.08-1.92c-1.92-2.33-3.69-5.74-5.27-7-2.13-1.71-7.57-2-7.57-2s1.83-4.33 3.69-8.92l.42-1c1-2.56 2-5.11 2.68-6.94 2.28 1.72 12.51 4.58 14.55 4.69 1.41.07 3.7-.68 7-1.6 1.52-.41 3.25-.86 5.21-1.29a15.72 15.72 0 0 1 8 .32 11.42 11.42 0 0 1 2.6 1.07z" transform="translate(-36.92 -65.91)"/><path class="cls-11" d="M697.64 400.55l-.94.79a14.35 14.35 0 0 0-4.14-2c-2.2-.43-11.78 3-13.48 3.3-2.13.37-12.07-2.46-14.9-3.29l.42-1c3.18.84 12 3.12 14.33 3.19 2.9.08 12.18-4.33 15-3a27.89 27.89 0 0 1 3.71 2.01z" transform="translate(-36.92 -65.91)"/><path class="cls-3" d="M704.67 394.65l-29.26 24.57a8.72 8.72 0 0 1-2.08-1.92l28.72-23.79a11.42 11.42 0 0 1 2.62 1.14z" transform="translate(-36.92 -65.91)"/><path class="cls-3" d="M704.67 394.65l-13.9 11.67a14.09 14.09 0 0 1-1.9-11.84c1.52-.41 3.25-.86 5.21-1.29a15.72 15.72 0 0 1 8 .32 11.42 11.42 0 0 1 2.59 1.14z" transform="translate(-36.92 -65.91)"/><path class="cls-11" d="M558.43 418.84s21.61 3.57 30.87-.23S626.83 387 626.83 387l15.67 9 11.41-17.57s-24.23-20.19-27.08-21.62-66.74 53.96-68.4 62.03z" transform="translate(-36.92 -65.91)"/><path d="M537.48 388.38l2.71-15.13c-6.56-24.4-8.56-38.1-4.7-47.37 3.65-8.79 5.13-12.13 8.13-13.13a27.6 27.6 0 0 1 5.09-.79c3.83-.33 8.09-.42 8.09-.42s6.51 2.07 7.08 2.64c.35.35 5.17 3.09 8.91 5.6 2.37 1.6 4.31 3.1 4.36 3.82.14 1.85 2.14 13.41 2.28 14.84s2.57 7.13 3.43 11-5.52 14.88-5.8 15.31a47.17 47.17 0 0 0 2.2 6.15c2.73 7 7 17.49 7 17.49z" transform="translate(-36.92 -65.91)" fill="#02b8a6"/><path class="cls-11" d="M548.97 289.05l1.16 2.48 40.37-11.47 7-44.03-3 .42-6.86 40.75-38.67 11.85z"/><path class="cls-14" d="M619.47 333.21l-9.02 8.79-12.11-11.68-6.79-6.55-6.58-6.34 10.42-14.04 7.94 10.78 5.85 6.9 10.29 12.14z"/><path class="cls-17" d="M603.33 314.17l-11.78 9.6-6.58-6.34 10.42-14.04 7.94 10.78z"/><path class="cls-3" d="M656.39 399.12l-9 8.8-12.11-11.69c2.34-2.05 8.12-6.94 10.85-9.24z" transform="translate(-36.92 -65.91)"/><path class="cls-5" d="M638.18 375.19s-4.55 4-10.26 8.92l-1.48 1.27-2.61 2.24c-3.87-3-10.93-12.33-10.93-12.33s-.43.66-1.22 1.81c-4.78 7-22.62 32.49-34.95 39.61-14.36 8.28-31.75 5-37.27-4.7-3-5.27-3.33-11.83-3-16.7a43.33 43.33 0 0 1 1-6.93l24.07.16s44.76-41.61 50.56-39.4 26.09 26.05 26.09 26.05z" transform="translate(-36.92 -65.91)"/><path class="cls-11" d="M627.92 384.11l-1.48 1.27c-4.06-3.71-17.9-18.16-19.5-19.58-5.14 2.25-9.63 7.49-23.55 24-9.13 10.82-16 15.6-20.75 17.42a8.84 8.84 0 0 1-10.13-2.65 5.65 5.65 0 0 1-.58-.86s-4.39-7.17-4.71-15.19c9.63.1 14.33.05 14.33.05s2.37 9.2-5.26 13.92a1.67 1.67 0 0 0 0 2.83c1.06.68 1.35.54 1.35.54s5.25.85 13.27-6.53 22.74-25 25.47-27.83c4.18-4.28 9.1-7.49 11.46-8.24 5.06 4.62 16.86 17.74 20.08 20.85z" transform="translate(-36.92 -65.91)"/><path class="cls-11" d="M612.9 375.29s-.43.66-1.22 1.81l-3.56-5.84zM613 351.48c-2.38-.47-5 1.55-4.84 3s9.44 4.76 10 3.19-2.98-5.76-5.16-6.19z" transform="translate(-36.92 -65.91)"/><path class="cls-5" d="M683.84 410.43l-8.91 2.18-1.2.3-7.52 1.85-19.48 4.78a8.41 8.41 0 0 1-1-2.64c-.7-2.94-.78-6.78-1.64-8.61-1.16-2.47-5.9-5.16-5.9-5.16s3.56-3.08 7.26-6.37l.82-.74c2.06-1.84 4.07-3.68 5.47-5 1.29 2.55 9.2 9.65 11 10.64 1.23.68 3.62 1 7 1.68 1.55.3 3.31.66 5.25 1.15a15.56 15.56 0 0 1 7 3.8 11.31 11.31 0 0 1 1.85 2.14z" transform="translate(-36.92 -65.91)"/><path class="cls-11" d="M674.93 412.61l-1.2.3a14.42 14.42 0 0 0-2.83-3.62c-1.78-1.36-11.9-2.51-13.55-3-2.08-.61-9.74-7.54-11.91-9.53l.82-.74c2.48 2.17 9.35 8.1 11.44 9.2 2.57 1.35 12.85 1.5 14.84 3.92a27.78 27.78 0 0 1 2.39 3.47z" transform="translate(-36.92 -65.91)"/><path class="cls-3" d="M683.84 410.43l-37.11 9.11a8.41 8.41 0 0 1-1-2.64l36.27-8.65a11.31 11.31 0 0 1 1.84 2.18z" transform="translate(-36.92 -65.91)"/><path class="cls-3" d="M683.84 410.43l-17.63 4.33a14.1 14.1 0 0 1 3.52-11.46c1.55.3 3.31.66 5.25 1.15a15.56 15.56 0 0 1 7 3.8 11.31 11.31 0 0 1 1.86 2.18z" transform="translate(-36.92 -65.91)"/><path class="cls-32" d="M582.29 358.7a16.61 16.61 0 0 0-3.1 1.32c-21.1 12-39.76 11.64-42.37 9-2.79-2.79-7.15-15.14-7-30.45.25-21.45 11.67-27.8 14.21-24.53 3.53 4.54 3.7 33.48 3.7 33.48a14.66 14.66 0 0 0 2.39 1.4c1 .4.25 2.09.25 2.09s19.57-2 25.09-3.93c2.33-.82 5 1.53 5.21 1.53l3.23 4.27s2.25 4.56-1.61 5.82z" transform="translate(-36.92 -65.91)"/><path class="cls-33" d="M582.29 358.7c-1.57.14-3.57.14-6.42-4.42s-.49-7.07-.4-7.17c2.33-.82 5 1.53 5.21 1.53l3.23 4.27s2.24 4.53-1.62 5.79zM547.66 351s-7.61 3.26-6.89 5.07 5.44-2 5.44-2-2.86 6.61-.94 5.66c4.34-1.46 2.39-8.73 2.39-8.73z" transform="translate(-36.92 -65.91)"/><path class="cls-14" d="M597.48 348.76c-.39 1.05-7.63-3.24-7.63-3.24s3.35 2.71 4.3 6.1a1.84 1.84 0 0 1 .09.7 1.36 1.36 0 0 1-.51.88s.6 1.7-.36 1.54c-.65-.12-3.14-2.3-4.68-3.71a1.18 1.18 0 0 0-1.87.4c-.84 1.91-2.47 4.88-4.36 4.69-2.77-.27-4.81-2.1-3.2-5.76 0 0 4-8.77 5.93-9.51s12.67 6.86 12.29 7.91z" transform="translate(-36.92 -65.91)"/><path class="cls-14" d="M585.19 340.85a4 4 0 0 1 2.72-.59c2 .06 9.39.67 9.44 1.69s-7.52 1.1-9.32.68-3.38-.85-2.84-1.78z" transform="translate(-36.92 -65.91)"/><path class="cls-17" d="M593.73 353.2L589 348a9.42 9.42 0 0 1 4.73 5.2z" transform="translate(-36.92 -65.91)"/><path class="cls-11" d="M592.34 301.19c-.57.9-1.46 8.77-3.49 14.28s-7.54 8.11-7.54 8.11l-1.31-2.46-9-16.19-5.11 11.92a75.2 75.2 0 0 1-9.34-9.42c-.93-1.11-1.88-2.29-2.83-3.56 7.44-8.17 8.84-18.73 19.87-18.9s20 9.25 20.28 10.95-1.53 5.27-1.53 5.27z" transform="translate(-36.92 -65.91)"/><path class="cls-9" d="M588.57 309c-1 2.57-1.5 5.21-3.14 7.71-1.07 1.62-3.74 3.4-5.48 4.44L571 304.93l-5.11 11.92a75.2 75.2 0 0 1-9.34-9.42l7.18-8.3L574 301.8s12.09 1 17-1.44c.35 3.37-1.43 6.04-2.43 8.64z" transform="translate(-36.92 -65.91)"/><path class="cls-11" d="M592.67 299.09c-1.63 4-.55 8.34-.91 12.46a10.62 10.62 0 0 1-1.89 5.62 6.49 6.49 0 0 1-2.36 1.93 15.27 15.27 0 0 1-2.74.69.16.16 0 0 0 0 .29c1.52.71 3.4-.21 4.61-1.16a8.79 8.79 0 0 0 2.92-4.78 21.05 21.05 0 0 0 .38-6.48 31.75 31.75 0 0 1 .26-8.49.13.13 0 0 0-.27-.08z" transform="translate(-36.92 -65.91)"/><path class="cls-32" d="M573.16 322.74c0 3.85-5.14 14.7-8.71 12s-15.27-16.56-16.12-19.27a4.75 4.75 0 0 1 .38-3.5c3.83-.33 8.09-.42 8.09-.42s6.51 2.07 7.08 2.64c.35.35 5.17 3.09 8.91 5.6a14 14 0 0 1 .37 2.95z" transform="translate(-36.92 -65.91)"/><path class="cls-12" d="M575.26 311.38s-1.44 1.34-2.62 2.3l-.13.11c-1.21 1.07-3.4 4-3.3 4.81a5.22 5.22 0 0 0 .48 2.25 3.82 3.82 0 0 1 .42 2.73c-.67 3.27-2.29 5.87-5.12 6.1-2.48.2-9.39-9.33-12.87-14.38a1.94 1.94 0 0 1 1.35-3 23 23 0 0 0 3.33-.74c3.15-.93 8.43-4.4 11.58-6.6 1.56-1.08 2.6-1.86 2.6-1.86s2.57-1.28 3.37-.1.91 8.38.91 8.38z" transform="translate(-36.92 -65.91)"/><path class="cls-17" d="M575.26 311.38s-1.44 1.34-2.62 2.3l-.13.11a22.44 22.44 0 0 1-4.13-8.85c1.56-1.08 2.6-1.86 2.6-1.86s2.57-1.28 3.37-.1.91 8.4.91 8.4zM558.14 320.8c0 1.05 10.07 3.46 10.22 2.25s-10.22-3.3-10.22-2.25z" transform="translate(-36.92 -65.91)"/><path class="cls-14" d="M586.57 308.22a4.37 4.37 0 0 0 .18 2.51.79.79 0 0 1-.42.94 2.84 2.84 0 0 1-1 .26 2.34 2.34 0 0 0-1.94 1c-1.21 1.45-3 3.25-3.88 3.36-2.78.36-6.46-4.21-7.1-5.54s.11-8.83 1.18-8.73 15.46-1.12 17-1.44a7.41 7.41 0 0 1-.28 1.61c-.83 2.99-3.42 4.81-3.74 6.03z" transform="translate(-36.92 -65.91)"/><path class="cls-14" d="M570.12 300c-.22 1-.54 3.35.43 4.39a5 5 0 0 0 2.29 1.26s.07-.19.16-.51l.11-.38c.48-1.78 1.29-5.67-.63-6.18a1.74 1.74 0 0 0-2.36 1.42z" transform="translate(-36.92 -65.91)"/><path class="cls-17" d="M571 300.66a.15.15 0 0 1-.25-.15c.23-.67.64-1.35 1.37-1.12 1.54.48.91 3.69 1.4 4.23-1.13-.48-1.93-.05-1.72.7a.77.77 0 0 1-.16-1.23 1.3 1.3 0 0 1 1.11-.27c-.1-1.25-.32-2.26-.87-2.45a.76.76 0 0 0-.88.29z" transform="translate(-36.92 -65.91)"/><path class="cls-17" d="M570.68 302.44a2.09 2.09 0 0 0 1.1 1.88c-.12-.7-.16-1.23-.16-1.23s-.46.26-.73-.67a.11.11 0 0 0-.21.02zM578.47 309.15a3.9 3.9 0 0 0 1 2.83 3.74 3.74 0 0 0 2.81.52 6.79 6.79 0 0 1-3.81-3.35z" transform="translate(-36.92 -65.91)"/><path class="cls-12" d="M578.54 313.36c.15-.5 1.64-.43 1.89.43s-2.03.07-1.89-.43z" transform="translate(-36.92 -65.91)"/><path class="cls-11" d="M585.45 305.52a1.1 1.1 0 0 0-.74-.33 1.14 1.14 0 0 0-.78.3 1.09 1.09 0 0 0-.32.74 1 1 0 0 0 .3.77 1.07 1.07 0 0 0 1.84-.71 1.08 1.08 0 0 0-.3-.77zM583.47 303.69a7.78 7.78 0 0 1 2.31.54 3.25 3.25 0 0 1 1.15 1.28 2 2 0 0 0-.72-1.93 2.65 2.65 0 0 0-2.74.11z" transform="translate(-36.92 -65.91)"/><path class="cls-12" d="M585.89 310.86c.1-.06-1.67-.6-1.78-.21s1.5.35 1.78.21z" transform="translate(-36.92 -65.91)"/><path class="cls-2" d="M0 353.05h676.16v2.73H0z"/></g></svg>